<?xml version="1.0" encoding="utf-8"?>
<!-- Generator: Adobe Illustrator 24.3.0, SVG Export Plug-In . SVG Version: 6.00 Build 0)  -->
<svg version="1.1" id="Layer_1" xmlns="http://www.w3.org/2000/svg" xmlns:xlink="http://www.w3.org/1999/xlink" x="0px" y="0px"
	 viewBox="0 0 600 600" style="enable-background:new 0 0 600 600;" xml:space="preserve">
<g id="Dt_Logo" transform="translate(-497.774 -90.325)">
	<path id="Path_16" d="M508.8,436.4l-0.5-0.5 M1021.1,162.9c84.4,121.2,54.5,287.9-66.7,372.3c-106.9,74.4-252,61-343.4-31.9
		c84.5,121.1,251.2,150.8,372.3,66.4s150.8-251.2,66.4-372.3C1041.1,185.1,1031.6,173.6,1021.1,162.9z M715.7,197.7
		c-7.6-7.4-16.8-13.2-26.8-16.8c-12.3-4.4-25.2-6.5-38.3-6.2h-28.9c-6.5,0-12.1,4.7-13.3,11.2l-28,160.1
		c-1.3,7.3,3.6,14.3,10.9,15.6c0.8,0.1,1.6,0.2,2.3,0.2H615l25.2-144.2c1.1-6.5,6.7-11.2,13.3-11.2h28.9c13-0.3,26,1.8,38.3,6.2
		c2.8,1.1,5.5,2.3,8,3.5C725.5,209.3,721.1,203,715.7,197.7L715.7,197.7z M836.7,332.8l-0.2,1.1
		C836.6,333.5,836.7,333.2,836.7,332.8L836.7,332.8z M831.5,215.4c-6.3-12-14.5-23-24.3-32.4c-3.2-3-6.5-5.9-10-8.5
		c-1.7-1.3-3.5-2.6-5.3-3.8c2.9,4.2,5.5,8.5,7.9,13c8.5,16.8,13,35.3,13.1,54.1h27.2C838.1,230,835.2,222.5,831.5,215.4L831.5,215.4
		z M1042.1,271.9l-31.7-31.7c1.2,1.5,1.7,3.4,1.4,5.3l-4.2,24l-4.6,26.1c-0.5,3.1-3.3,5.4-6.4,5.4h-69c-6.5,0-12.1,4.6-13.3,11.1
		l-35,192.3c-0.6,3.1-3.3,5.4-6.4,5.4h-60.2c-1.7,0-3.4-0.7-4.6-1.9l31.7,31.7c1.2,1.3,2.9,2,4.7,2h60.2c3.2,0,5.8-2.3,6.4-5.4
		l35-192.3c1.2-6.4,6.7-11.1,13.3-11.1h69.1c3.2,0,5.9-2.3,6.4-5.4l8.8-50.2C1043.8,275.3,1043.3,273.4,1042.1,271.9L1042.1,271.9z
		 M826.3,301h-21.2c-8.6,28.7-24.6,54.5-46.5,75c-17.6,16.1-38.2,28.5-60.6,36.5c-24.4,8.7-50.2,13.1-76.1,12.8H502
		c-1.5,0-3-0.5-4.2-1.5l31.5,31.5c1.2,1.1,2.8,1.7,4.4,1.7h120c25.9,0.3,51.7-4.1,76.1-12.8c22.4-8,43-20.4,60.6-36.5
		c17.3-16,30.9-35.5,40-57.3c2.3-5.4,4.4-11,6.1-16.7l0.2-1.1l2.9-15.9c1.3-7.3-3.6-14.3-10.9-15.6
		C827.9,301.1,827.1,301.1,826.3,301L826.3,301z M836.7,332.8l-0.2,1.1C836.6,333.5,836.7,333.2,836.7,332.8L836.7,332.8z
		 M808.1,507.8l-0.3-0.3 M1042.4,272.2l-0.3-0.3"/>
</g>
</svg>
