<?xml version="1.0" encoding="utf-8"?>
<!-- Generator: Adobe Illustrator 24.2.3, SVG Export Plug-In . SVG Version: 6.00 Build 0)  -->
<svg version="1.1" id="Layer_1" xmlns="http://www.w3.org/2000/svg" xmlns:xlink="http://www.w3.org/1999/xlink" x="0px" y="0px"
	 viewBox="0 0 600 600" style="enable-background:new 0 0 600 600;" xml:space="preserve">
<style type="text/css">
	.st0{fill-rule:evenodd;clip-rule:evenodd;fill:#FFFFFF;}
	.st1{fill:#FFFFFF;}
</style>
<g>
	<path class="st0" d="M300,8.44C134.92,8.44,1.06,142.28,1.06,307.38c0,132.08,85.65,244.13,204.43,283.66
		c14.94,2.77,20.43-6.49,20.43-14.38c0-7.13-0.28-30.68-0.41-55.66c-83.16,18.09-100.71-35.27-100.71-35.27
		c-13.6-34.55-33.19-43.74-33.19-43.74c-27.13-18.55,2.04-18.17,2.04-18.17c30.02,2.11,45.82,30.81,45.82,30.81
		c26.66,45.7,69.93,32.49,86.99,24.85c2.68-19.32,10.43-32.51,18.98-39.97c-66.4-7.56-136.2-33.19-136.2-147.74
		c0-32.64,11.68-59.3,30.8-80.24c-3.1-7.53-13.34-37.93,2.9-79.11c0,0,25.1-8.03,82.23,30.65c23.85-6.63,49.42-9.95,74.82-10.06
		c25.4,0.12,51,3.44,74.89,10.06c57.06-38.68,82.12-30.65,82.12-30.65c16.27,41.18,6.04,71.58,2.93,79.11
		c19.17,20.93,30.77,47.6,30.77,80.24c0,114.82-69.93,140.1-136.5,147.5c10.72,9.28,20.28,27.47,20.28,55.36
		c0,40-0.34,72.19-0.34,82.04c0,7.96,5.38,17.28,20.53,14.34c118.72-39.57,204.26-151.59,204.26-283.62
		C598.94,142.28,465.1,8.44,300,8.44z"/>
	<path class="st1" d="M114.29,437.65c-0.66,1.49-3,1.93-5.12,0.91c-2.17-0.98-3.38-3-2.68-4.49c0.64-1.53,2.98-1.95,5.15-0.93
		C113.8,434.12,115.04,436.16,114.29,437.65L114.29,437.65z M110.61,434.92"/>
	<path class="st1" d="M126.4,451.16c-1.43,1.32-4.22,0.71-6.11-1.38c-1.96-2.08-2.32-4.87-0.88-6.21c1.47-1.32,4.17-0.7,6.13,1.38
		C127.5,447.05,127.88,449.82,126.4,451.16L126.4,451.16z M123.54,448.1"/>
	<path class="st1" d="M138.18,468.37c-1.83,1.28-4.83,0.08-6.68-2.58c-1.83-2.66-1.83-5.85,0.04-7.13c1.85-1.28,4.81-0.13,6.68,2.51
		C140.05,463.88,140.05,467.07,138.18,468.37L138.18,468.37z M138.18,468.37"/>
	<path class="st1" d="M154.33,485.01c-1.64,1.81-5.13,1.32-7.68-1.15c-2.62-2.41-3.34-5.83-1.7-7.64c1.66-1.81,5.17-1.3,7.74,1.15
		C155.29,479.78,156.07,483.22,154.33,485.01L154.33,485.01z M154.33,485.01"/>
	<path class="st1" d="M176.6,494.67c-0.73,2.34-4.08,3.4-7.47,2.41c-3.38-1.03-5.59-3.77-4.91-6.13c0.7-2.36,4.08-3.47,7.49-2.4
		C175.09,489.56,177.31,492.28,176.6,494.67L176.6,494.67z M176.6,494.67"/>
	<path class="st1" d="M201.07,496.46c0.08,2.47-2.79,4.51-6.34,4.55c-3.57,0.08-6.47-1.91-6.51-4.34c0-2.49,2.81-4.51,6.38-4.57
		C198.16,492.03,201.07,494.01,201.07,496.46L201.07,496.46z M201.07,496.46"/>
	<path class="st1" d="M223.84,492.58c0.43,2.4-2.04,4.87-5.57,5.53c-3.47,0.64-6.68-0.85-7.13-3.23c-0.43-2.47,2.08-4.94,5.55-5.57
		C220.22,488.69,223.39,490.14,223.84,492.58L223.84,492.58z M223.84,492.58"/>
</g>
</svg>
