<?xml version="1.0" encoding="utf-8"?>
<!-- Generator: Adobe Illustrator 24.3.0, SVG Export Plug-In . SVG Version: 6.00 Build 0)  -->
<svg version="1.1" id="Layer_1" xmlns="http://www.w3.org/2000/svg" xmlns:xlink="http://www.w3.org/1999/xlink" x="0px" y="0px"
	 viewBox="0 0 600 600" style="enable-background:new 0 0 600 600;" xml:space="preserve">
<style type="text/css">
	.st0{fill-rule:evenodd;clip-rule:evenodd;}
</style>
<g>
	<path class="st0" d="M300,8.4C134.9,8.4,1.1,142.3,1.1,307.4c0,132.1,85.7,244.1,204.4,283.7c14.9,2.8,20.4-6.5,20.4-14.4
		c0-7.1-0.3-30.7-0.4-55.7c-83.2,18.1-100.7-35.3-100.7-35.3C111.2,451.2,91.6,442,91.6,442c-27.1-18.5,2-18.2,2-18.2
		c30,2.1,45.8,30.8,45.8,30.8c26.7,45.7,69.9,32.5,87,24.9c2.7-19.3,10.4-32.5,19-40C179,432,109.2,406.3,109.2,291.8
		c0-32.6,11.7-59.3,30.8-80.2c-3.1-7.5-13.3-37.9,2.9-79.1c0,0,25.1-8,82.2,30.6c23.9-6.6,49.4-9.9,74.8-10.1
		c25.4,0.1,51,3.4,74.9,10.1c57.1-38.7,82.1-30.6,82.1-30.6c16.3,41.2,6,71.6,2.9,79.1c19.2,20.9,30.8,47.6,30.8,80.2
		c0,114.8-69.9,140.1-136.5,147.5c10.7,9.3,20.3,27.5,20.3,55.4c0,40-0.3,72.2-0.3,82c0,8,5.4,17.3,20.5,14.3
		c118.7-39.6,204.3-151.6,204.3-283.6C598.9,142.3,465.1,8.4,300,8.4z"/>
	<path d="M114.3,437.6c-0.7,1.5-3,1.9-5.1,0.9c-2.2-1-3.4-3-2.7-4.5c0.6-1.5,3-2,5.2-0.9C113.8,434.1,115,436.2,114.3,437.6
		L114.3,437.6z"/>
	<path d="M126.4,451.2c-1.4,1.3-4.2,0.7-6.1-1.4c-2-2.1-2.3-4.9-0.9-6.2c1.5-1.3,4.2-0.7,6.1,1.4C127.5,447,127.9,449.8,126.4,451.2
		L126.4,451.2z"/>
	<path d="M138.2,468.4c-1.8,1.3-4.8,0.1-6.7-2.6c-1.8-2.7-1.8-5.9,0-7.1c1.9-1.3,4.8-0.1,6.7,2.5
		C140.1,463.9,140.1,467.1,138.2,468.4L138.2,468.4z"/>
	<path d="M154.3,485c-1.6,1.8-5.1,1.3-7.7-1.1c-2.6-2.4-3.3-5.8-1.7-7.6c1.7-1.8,5.2-1.3,7.7,1.1C155.3,479.8,156.1,483.2,154.3,485
		L154.3,485z"/>
	<path d="M176.6,494.7c-0.7,2.3-4.1,3.4-7.5,2.4c-3.4-1-5.6-3.8-4.9-6.1c0.7-2.4,4.1-3.5,7.5-2.4
		C175.1,489.6,177.3,492.3,176.6,494.7L176.6,494.7z"/>
	<path d="M201.1,496.5c0.1,2.5-2.8,4.5-6.3,4.5c-3.6,0.1-6.5-1.9-6.5-4.3c0-2.5,2.8-4.5,6.4-4.6C198.2,492,201.1,494,201.1,496.5
		L201.1,496.5z"/>
	<path d="M223.8,492.6c0.4,2.4-2,4.9-5.6,5.5c-3.5,0.6-6.7-0.9-7.1-3.2c-0.4-2.5,2.1-4.9,5.6-5.6
		C220.2,488.7,223.4,490.1,223.8,492.6L223.8,492.6z"/>
</g>
</svg>
