<?xml version="1.0" encoding="utf-8"?>
<!-- Generator: Adobe Illustrator 24.3.0, SVG Export Plug-In . SVG Version: 6.00 Build 0)  -->
<svg version="1.1" id="Layer_1" xmlns="http://www.w3.org/2000/svg" xmlns:xlink="http://www.w3.org/1999/xlink" x="0px" y="0px"
	 viewBox="0 0 600 600" style="enable-background:new 0 0 600 600;" xml:space="preserve">
<g>
	<g>
		<path d="M419.3,0H180.7C80.9,0,0,80.9,0,180.7v238.6C0,519.1,80.9,600,180.7,600h238.5c99.8,0,180.7-80.9,180.7-180.7V180.7
			C600,80.9,519.1,0,419.3,0z M543.4,419.3c0,68.6-55.6,124.1-124.1,124.1H180.7c-68.6,0-124.1-55.6-124.1-124.1V180.7
			c0-68.6,55.6-124.1,124.1-124.1h238.5c68.6,0,124.1,55.6,124.1,124.1v238.6H543.4z"/>
		<path d="M493.1,145.7c0,19.5-15.8,35.3-35.3,35.3s-35.3-15.8-35.3-35.3s15.8-35.3,35.3-35.3C477.3,110.5,493.1,126.3,493.1,145.7z
			"/>
		<path d="M301,155.7c-81.7,0-148.2,66.5-148.2,148.2S219.3,452.1,301,452.1s148.2-66.5,148.2-148.2S382.7,155.7,301,155.7z
			 M301,398.8c-52.3,0-94.9-42.6-94.9-94.9S248.7,209,301,209s94.9,42.6,94.9,94.9S353.4,398.8,301,398.8z"/>
	</g>
</g>
</svg>
