<?xml version="1.0" encoding="utf-8"?>
<!-- Generator: Adobe Illustrator 24.2.3, SVG Export Plug-In . SVG Version: 6.00 Build 0)  -->
<svg version="1.1" id="elements" xmlns="http://www.w3.org/2000/svg" xmlns:xlink="http://www.w3.org/1999/xlink" x="0px" y="0px"
	 viewBox="0 0 600 600" enable-background="new 0 0 600 600" xml:space="preserve">
<path id="Phone_Icon" fill-rule="evenodd" clip-rule="evenodd" fill="#FFFFFF" d="M425,600H175c-27.6,0-50-22.4-50-50c0,0,0,0,0,0
	V50c0-27.6,22.4-50,50-50h250c27.6,0,50,22.4,50,50c0,0,0,0,0,0v499.9C475.1,577.5,452.7,599.9,425,600C425.1,600,425,600,425,600z
	 M300,575c13.8,0,25-11.2,25-25c0-13.8-11.2-25-25-25c-13.8,0-25,11.2-25,25S286.2,575,300,575L300,575z M337.5,25h-75
	c-6.9,0-12.5,5.6-12.5,12.5c0,6.9,5.6,12.5,12.5,12.5h75c6.9,0,12.5-5.6,12.5-12.5C350,30.6,344.4,25,337.5,25z M450,450V100
	c0-13.8-11.2-25-25-25l0,0H175c-13.8,0-25,11.2-25,25c0,0,0,0,0,0v375c0,13.8,11.2,25,25,25l0,0h250c13.8,0,25-11.2,25-25l0,0
	L450,450z"/>
</svg>
