<?xml version="1.0" encoding="utf-8"?>
<!-- Generator: Adobe Illustrator 24.3.0, SVG Export Plug-In . SVG Version: 6.00 Build 0)  -->
<svg version="1.1" id="elements" xmlns="http://www.w3.org/2000/svg" xmlns:xlink="http://www.w3.org/1999/xlink" x="0px" y="0px"
	 viewBox="0 0 600 600" style="enable-background:new 0 0 600 600;" xml:space="preserve">
<style type="text/css">
	.st0{fill-rule:evenodd;clip-rule:evenodd;}
</style>
<path id="Phone_Icon" class="st0" d="M425,600H175c-27.6,0-50-22.4-50-50l0,0V50c0-27.6,22.4-50,50-50h250c27.6,0,50,22.4,50,50l0,0
	v499.9C475.1,577.5,452.7,599.9,425,600C425.1,600,425,600,425,600z M300,575c13.8,0,25-11.2,25-25s-11.2-25-25-25s-25,11.2-25,25
	S286.2,575,300,575L300,575z M337.5,25h-75c-6.9,0-12.5,5.6-12.5,12.5S255.6,50,262.5,50h75c6.9,0,12.5-5.6,12.5-12.5
	S344.4,25,337.5,25z M450,450V100c0-13.8-11.2-25-25-25l0,0H175c-13.8,0-25,11.2-25,25l0,0v375c0,13.8,11.2,25,25,25l0,0h250
	c13.8,0,25-11.2,25-25l0,0V450z"/>
</svg>
