<?xml version="1.0" encoding="utf-8"?>
<!-- Generator: Adobe Illustrator 24.2.3, SVG Export Plug-In . SVG Version: 6.00 Build 0)  -->
<svg version="1.1" xmlns="http://www.w3.org/2000/svg" xmlns:xlink="http://www.w3.org/1999/xlink" x="0px" y="0px"
	 viewBox="0 0 600 600" enable-background="new 0 0 600 600" xml:space="preserve">
<g id="Master_Layer_3">
</g>
<g id="Layer_1">
	<path fill-rule="evenodd" clip-rule="evenodd" fill="#FFFFFF" d="M460.5,173c-15.6,0-27.9,12.2-27.9,27.6
		c0,16.3,12.3,28.4,27.9,28.4c16.4,0,28.7-12.2,28.7-28.4C489.2,185.2,476.9,173,460.5,173L460.5,173z"/>
	<path fill-rule="evenodd" clip-rule="evenodd" fill="#FFFFFF" d="M600,535.2H0V65.8h600V535.2L600,535.2z M569.6,501.9V99.1H29.6
		v402.8H569.6z"/>
	<polygon fill-rule="evenodd" clip-rule="evenodd" fill="#FFFFFF" points="355.4,287.5 408.9,341.1 446.8,297.2 560.2,492.5 
		38.9,492.5 38.9,350.7 167.4,216 291.4,363.8 	"/>
</g>
</svg>
