<?xml version="1.0" encoding="utf-8"?>
<!-- Generator: Adobe Illustrator 24.2.3, SVG Export Plug-In . SVG Version: 6.00 Build 0)  -->
<svg version="1.1" id="Layer_1" xmlns="http://www.w3.org/2000/svg" xmlns:xlink="http://www.w3.org/1999/xlink" x="0px" y="0px"
	 viewBox="0 0 600 600" enable-background="new 0 0 600 600" xml:space="preserve">
<g id="Speech_Icon" transform="translate(-1026.38 -111.21)">
	<g id="Group_4" transform="translate(1026.38 114.578)">
		<g id="Group_3">
			<path id="Path_21" fill="#FFFFFF" d="M217.5,376.8c7.1,5.4,14.5,10.4,22.2,15c-23.9,9.2-49.3,13.8-75,13.7
				c-6.6,0-13.2-0.3-19.6-0.9l-94.4,88.6L70.5,383C29.7,364.6,2.5,324.9,0,280.2c0-69.2,73.8-125.3,164.8-125.3h4.2
				c-1.7,2.6-3.2,5.3-4.8,8.1c-27.1,47.6-27.1,106,0,153.6C177.6,340.1,195.7,360.7,217.5,376.8z"/>
		</g>
	</g>
	<g id="Group_6" transform="translate(1033.763 111.21)">
		<g id="Group_5" transform="translate(0 0)">
			<path id="Path_22" fill="#FFFFFF" d="M501,376.8l25.5,143.4L403.8,405c-8.4,0.8-16.9,1.1-25.5,1.2c-40.1,0.3-79.8-8.6-116-25.9
				c-59.2-29-98.4-79.6-98.4-137.2c0.3-29.8,10.5-58.6,29-82c46.2-53.8,114.5-83.7,185.4-81.1c118.4,0,214.4,73,214.4,163.1
				C589.4,301.2,554.1,352.8,501,376.8z"/>
		</g>
	</g>
</g>
</svg>
