<?xml version="1.0" encoding="utf-8"?>
<!-- Generator: Adobe Illustrator 24.3.0, SVG Export Plug-In . SVG Version: 6.00 Build 0)  -->
<svg version="1.1" id="Layer_1" xmlns="http://www.w3.org/2000/svg" xmlns:xlink="http://www.w3.org/1999/xlink" x="0px" y="0px"
	 viewBox="0 0 600 600" style="enable-background:new 0 0 600 600;" xml:space="preserve">
<path d="M600,112.7c0,1.6,0.2,5.3-3,9.6c-14,18.9-29,35.8-47.8,49.9c-2.7,2-7.3,4.2-7.3,8.1c0,99.2-25.3,198.2-97.6,270
	c-92,91.4-230.1,116.3-352.6,82.5c-23.7-6.6-46.4-15.7-68.2-27.3c-7.2-3.9-14.3-8-21.2-12.6c-1.8-1.4-3.1-2.7-1.6-3.7
	c1.5-0.8,2.6-0.8,8.1,0c34.3,3.4,69.6-1.7,102-13.1c17.8-6.3,56.1-18.8,67.2-35.6c0.2-0.4,0.5-0.4,0.8-0.8c-4.5-1-8.9-1-13.4-1.8
	c-33.3-9.5-77.8-26.2-98.4-82.4c-1.3-3.3,0-5,3.4-4.3c27.4,2.1,37.2,0.6,46.8-1.5c-5.4-0.9-10.9-2.8-15.9-4.8
	c-41.9-16-72.6-56.9-78.2-101.1c-0.7-5.1-1.1-9.4-0.8-14.2c0.3-3.3,1.7-4.3,4.6-2.5c21.6,11.2,45.8,13.8,47.7,13.4
	c-5.4-4.2-10.3-8.8-15.2-13.4C23.2,192.6,9,122.4,38.2,78.8c2.4-3.5,3.9-3.5,6.8-0.2c66.5,75.8,148.5,111.2,247.4,125.9
	c2.6,0.4,2.9,0,2.5-2.9c-2.6-17.4-2.9-34.5,1.3-51.7c4.4-17.9,12.9-34.7,24.4-49c11.2-13.8,25.2-25.2,40.9-33.4
	c15.7-8.2,33.1-13.2,50.7-14.3c18.2-1.2,36.6,1.7,53.5,8.6c12.8,5.2,24.3,12.3,34.9,21.4c2.2,1.8,4.2,4.1,6.3,6.4
	c1.3,1.3,2.9,1.8,5,1.3c25.3-6.3,49-15.2,72-27.6c1-0.5,1.9-0.8,3.2-0.3c1.1,0.8,0.7,2.1,0.1,3.1c-4.1,13.4-11.4,25.9-20.2,36.8
	c-5.7,7.1-20.1,24.8-29.9,26.5c20.6-3.4,41.6-8.7,60.6-17.3c2.4-1.1,2.3-1.6,2.3,0C600,112.1,600,112.4,600,112.7z"/>
</svg>
