<?xml version="1.0" encoding="utf-8"?>
<!-- Generator: Adobe Illustrator 24.2.3, SVG Export Plug-In . SVG Version: 6.00 Build 0)  -->
<svg version="1.1" id="Layer_1" xmlns="http://www.w3.org/2000/svg" xmlns:xlink="http://www.w3.org/1999/xlink" x="0px" y="0px"
	 viewBox="0 0 600 600" enable-background="new 0 0 600 600" xml:space="preserve">
<path fill="#FFFFFF" d="M300,246.7c68.1-0.1,123.2-55.2,123.4-123.4C423.2,55.2,368.1,0.1,300,0c-68.1,0.1-123.2,55.2-123.4,123.4
	C176.8,191.5,231.9,246.6,300,246.7z M369.5,278.8H230.5c-45.5,0-86.7,18.4-116.5,48.2c-29.8,29.8-48.2,71-48.2,116.5V558
	c65.8,26.4,146.7,42,234.3,42c87.6,0,168.5-15.6,234.3-42V443.6c0-45.5-18.4-86.7-48.3-116.5C456.2,297.3,415,278.8,369.5,278.8z"/>
</svg>
