<?xml version="1.0" encoding="utf-8"?>
<!-- Generator: Adobe Illustrator 24.2.3, SVG Export Plug-In . SVG Version: 6.00 Build 0)  -->
<svg version="1.1" xmlns="http://www.w3.org/2000/svg" xmlns:xlink="http://www.w3.org/1999/xlink" x="0px" y="0px"
	 viewBox="0 0 1050 749" enable-background="new 0 0 1050 749" xml:space="preserve">
<g id="Car_Base">
	<polygon points="883.1,555.8 803.6,555.8 774,588 758,588 753.6,592.1 700.9,589.9 687.9,582 559.4,616.5 540.1,615.7 391.4,642.8 
		386.5,642.8 363.2,631.9 366.1,630.1 381.5,637 378.9,630.1 361.3,630.1 361.3,600.6 188.3,495.2 581.1,427.1 560.8,511.3 
		863.3,480.5 874,512.1 883.1,531.7 884.5,547.8 	"/>
	<path fill="#1A1A1A" d="M599.6,388.1c0,0,98,4.9,139.5,4.5s85.6-4.5,85.6-4.5l6.5,42.8l-250,22l-4.2-25.6L599.6,388.1z"/>
</g>
<g id="Right_Arm">
	<g>
		<path fill="#C0E7F1" d="M581.2,430.9c-2.3,0-4.6-0.4-6.8-1.3c-8.5-3.5-12.3-12.7-8.6-20.5l50.1-93c3.7-7.9,8.4-12.7,16.9-9.2
			c8.5,3.5,12.3,12.7,8.6,20.5l-44.9,94.2C593.8,427.4,587.6,430.9,581.2,430.9z"/>
	</g>
	<path fill="#FFC98B" d="M608.9,408.2l-9.1,13.6l-7.3,10.9c0,0-20.1,3.6-30.1-12.1c-9.2-14.6-30.5-30.1-33.5-32.3
		c-0.4,0.9-1,2-1.6,3.1c-1.9,0.2-3.8,0.2-5.7,0c-0.6,0-1.2-0.1-1.8-0.2c-2.9-0.4-5.8-1.3-8.4-2.9c-1.3-0.8-2.4-1.7-3.5-2.8
		c-1-1.1-1.9-2.3-2.7-3.6c-1.5-2.6-2.3-5.6-2.8-8.6c0.3,3,1,6.1,2.3,8.9c0.7,1.4,1.5,2.7,2.6,3.9c1,1.2,2.2,2.2,3.5,3.1
		c2.6,1.8,5.6,2.9,8.7,3.5c0.3,0.1,0.6,0.1,0.9,0.2c1.9,0.3,3.7,0.5,5.6,0.5c-0.7,1-1.4,2.1-2.2,3.2c-0.5,0.6-0.9,1.2-1.3,1.8
		l-0.2-0.1c0-0.1,0.2-0.2,0.3-0.2c0,0-0.1,0-0.1,0c-0.1,0-0.2,0.1-0.4,0.1c-0.3,0-0.5,0.1-0.8,0.2c-0.5,0.1-1.1,0.2-1.6,0.2
		c-1,0.1-2,0.2-3,0.2c-0.1,0-0.3,0-0.4,0c-2.2,0-4.4-0.1-6.6-0.6c-2.2-0.4-4.3-1.2-6.2-2.3c-1-0.6-1.9-1.2-2.7-2
		c-0.8-0.8-1.5-1.7-2.1-2.6c0.5,1,1.2,2,1.9,2.8c0.8,0.9,1.6,1.6,2.6,2.3c1.9,1.3,4,2.2,6.3,2.8c2.1,0.6,4.3,0.9,6.5,1.1
		c0.1,0,0.2,0,0.4,0c1.1,0.1,2.3,0.1,3.5,0.1c0.4,0,0.9,0,1.3-0.1c-1.2,1.6-2.4,3-3.7,4.2l-0.1-0.3c-1,0.3-2.1,0.5-3.3,0.7
		c-0.6,0.1-1.3,0.2-1.9,0.3c-1.7,0.2-3.5,0.4-5.3,0.4c-1.8,0-3.5-0.1-5.3-0.5c-1.7-0.4-3.4-1-4.9-1.9c1.4,1.1,3.1,1.9,4.8,2.4
		c1.7,0.5,3.5,0.8,5.3,1c1.8,0.2,3.6,0.2,5.4,0.1c0.4,0,0.8,0,1.2-0.1c-0.1,0.3-0.2,0.5-0.3,0.8c-2.6,1.3-5.8,2-10.2,2
		c-3.3,0-6.1-1-8.4-2.6c-5.7-3.9-8.8-11.7-9.8-18.7c-1.4-9.9,2-26.8,15.2-35.2c13.1-8.4,30.8-6.8,36.3-1.9
		c5.4,4.9,11.9,6.6,11.9,6.6l7.1,2.4l42.3,14.4l9.1,27.5L608.9,408.2z"/>
	<path fill="#FFC98B" d="M517.4,404.2l0.1,0.3c-0.8,0.8-1.6,1.4-2.5,2l0,0c-0.5,0.3-1,0.6-1.6,0.9c0.1-0.3,0.2-0.5,0.3-0.8
		c0-0.2,0.1-0.3,0.2-0.5c0-0.1,0.1-0.3,0.1-0.4c0.1-0.3,0.2-0.6,0.3-0.9C515.3,404.7,516.4,404.4,517.4,404.2z"/>
	<path fill="#FFC98B" d="M522.4,398.3l0.2,0.1c-0.5,0.6-0.9,1.2-1.4,1.8c-0.4,0-0.9,0.1-1.3,0.1c-1.2,0-2.3,0-3.5-0.1
		c-0.1,0-0.2,0-0.4,0c0.2-0.5,0.5-1,0.8-1.5c1,0,2-0.1,3-0.2c0.5,0,1.1-0.1,1.6-0.2c0.3-0.1,0.5-0.1,0.8-0.2c0.1,0,0.3-0.1,0.4-0.1
		c0,0,0.1,0,0.1,0C522.6,398.2,522.5,398.2,522.4,398.3z"/>
	<path fill="#FFC98B" d="M527.3,391.5c-0.4,0.6-0.8,1.3-1.2,2c-1.9,0-3.8-0.2-5.6-0.5c0.4-0.5,0.7-1,1.1-1.4
		C523.6,391.7,525.5,391.7,527.3,391.5z"/>
	<path fill="#FFC98B" d="M514.2,404.9c-0.1,0.3-0.2,0.6-0.3,0.9c0,0.1-0.1,0.3-0.1,0.4c-0.1,0.2-0.1,0.3-0.2,0.5
		c-0.4,0-0.8,0-1.2,0.1c-1.8,0.1-3.6,0.1-5.4-0.1c-1.8-0.2-3.6-0.5-5.3-1c-1.7-0.6-3.4-1.3-4.8-2.4c1.5,1,3.2,1.6,4.9,1.9
		c1.7,0.4,3.5,0.5,5.3,0.5c1.8,0,3.5-0.2,5.3-0.4C512.9,405.1,513.5,405,514.2,404.9z"/>
	<path fill="#FFC98B" d="M516.8,398.8c-0.3,0.5-0.5,1-0.8,1.5c-2.2-0.2-4.4-0.5-6.5-1.1c-2.2-0.6-4.4-1.5-6.3-2.8
		c-0.9-0.7-1.8-1.4-2.6-2.3c-0.8-0.9-1.4-1.8-1.9-2.8c0.6,1,1.3,1.9,2.1,2.6c0.8,0.8,1.7,1.4,2.7,2c1.9,1.1,4.1,1.8,6.2,2.3
		c2.2,0.4,4.4,0.6,6.6,0.6C516.6,398.8,516.7,398.8,516.8,398.8z"/>
	<path fill="#FFC98B" d="M521.7,391.5c-0.4,0.5-0.8,1-1.1,1.4c-0.3,0-0.6-0.1-0.9-0.2c-3.1-0.6-6.1-1.7-8.7-3.5
		c-1.3-0.9-2.5-1.9-3.5-3.1c-1-1.2-1.9-2.5-2.6-3.9c-1.3-2.8-2.1-5.8-2.3-8.9c0.4,3,1.3,6,2.8,8.6c0.8,1.3,1.7,2.5,2.7,3.6
		c1.1,1.1,2.2,2,3.5,2.8c2.5,1.6,5.4,2.4,8.4,2.9C520.5,391.4,521.1,391.5,521.7,391.5z"/>
	<path fill="#3C121A" d="M527.3,391.5c-0.4,0.6-0.8,1.3-1.2,2c-1.9,0-3.8-0.2-5.6-0.5c-0.3,0-0.6-0.1-0.9-0.2
		c-3.1-0.6-6.1-1.7-8.7-3.5c-1.3-0.9-2.5-1.9-3.5-3.1c-1-1.2-1.9-2.5-2.6-3.9c-1.3-2.8-2.1-5.8-2.3-8.9c0.4,3,1.3,6,2.8,8.6
		c0.8,1.3,1.7,2.5,2.7,3.6c1.1,1.1,2.2,2,3.5,2.8c2.5,1.6,5.4,2.4,8.4,2.9c0.6,0.1,1.2,0.2,1.8,0.2
		C523.6,391.7,525.5,391.7,527.3,391.5z"/>
	<path fill="#3C121A" d="M522.4,398.3l0.2,0.1c-0.5,0.6-0.9,1.2-1.4,1.8c-0.4,0-0.9,0.1-1.3,0.1c-1.2,0-2.3,0-3.5-0.1
		c-0.1,0-0.2,0-0.4,0c-2.2-0.2-4.4-0.5-6.5-1.1c-2.2-0.6-4.4-1.5-6.3-2.8c-0.9-0.7-1.8-1.4-2.6-2.3c-0.8-0.9-1.4-1.8-1.9-2.8
		c0.6,1,1.3,1.9,2.1,2.6c0.8,0.8,1.7,1.4,2.7,2c1.9,1.1,4.1,1.8,6.2,2.3c2.2,0.4,4.4,0.6,6.6,0.6c0.1,0,0.3,0,0.4,0c1,0,2-0.1,3-0.2
		c0.5,0,1.1-0.1,1.6-0.2c0.3-0.1,0.5-0.1,0.8-0.2c0.1,0,0.3-0.1,0.4-0.1c0,0,0.1,0,0.1,0C522.6,398.2,522.5,398.2,522.4,398.3z"/>
	<path fill="#3C121A" d="M517.5,404.5l-2.5,2l0,0c-0.4,0-0.9,0.1-1.3,0.1c-0.4,0-0.8,0-1.2,0.1c-1.8,0.1-3.6,0.1-5.4-0.1
		c-1.8-0.2-3.6-0.5-5.3-1c-1.7-0.6-3.4-1.3-4.8-2.4c1.5,1,3.2,1.6,4.9,1.9c1.7,0.4,3.5,0.5,5.3,0.5c1.8,0,3.5-0.2,5.3-0.4
		c0.6-0.1,1.3-0.2,1.9-0.3c1.1-0.2,2.2-0.4,3.3-0.7L517.5,404.5z"/>
</g>
<g id="Pat">
	<path fill="#6DB8C8" d="M615.3,295.2l-1.8,3l-0.7,1.2l-11.5,19.5c0.1-0.4,1.3-4.9,2-10.1c0.6-4.2,1-8.9,0.5-12.3
		c-1.2-7.1-6.7-11.8-7.7-12.6c-0.1-0.1-0.1-0.1-0.1-0.1l0,0c0.8,0,1.6,0.1,2.6,0.1c1.3,0,2.8,0,4.5,0c1.2,0,2.5-0.1,3.8-0.2
		L615.3,295.2z"/>
	<linearGradient id="SVGID_1_" gradientUnits="userSpaceOnUse" x1="580.3806" y1="349.8164" x2="775.5506" y2="349.8164">
		<stop  offset="0" style="stop-color:#688DA7"/>
		<stop  offset="7.947600e-02" style="stop-color:#7EA4BA"/>
		<stop  offset="0.1917" style="stop-color:#96BCCE"/>
		<stop  offset="0.3181" style="stop-color:#A9CFDE"/>
		<stop  offset="0.4648" style="stop-color:#B6DDE9"/>
		<stop  offset="0.65" style="stop-color:#BEE5EF"/>
		<stop  offset="1" style="stop-color:#C0E7F1"/>
	</linearGradient>
	<path fill="url(#SVGID_1_)" d="M775.6,428.6L580.4,444c0,0,18.1-23.6,31.3-53.1c8.6-19.3,15.2-41.2,13-60.5
		c-0.9-7.9-2.9-14.8-5.8-20.8c-1.8-3.7-3.8-7-6.1-10.1l2.5-4.2l15.8,21.8l21-61.4c7.9,6.3,16.7,12.1,25.9,18.2c5,3.2,10,6.5,15.1,10
		c15.8,10.8,32,23.4,46,41.2C770.4,365.1,775.6,428.6,775.6,428.6z"/>
	<g>
		<defs>
			<path id="XMLID_34_" d="M652,255.7c-2,5.6-6.5,13.1-17.1,19.5c-14.3,8.7-31,9-38.9,8.5c-0.8-0.6-1.7-1.1-2.6-1.6
				c-16-9.9-34.3-14-45.3-16.6c-21.5-5-59.6-16.5-74.1-23.5c-14.5-7-26-20-25.5-32c0-24.1,35.8-87.5,35.8-87.5s33.1-61.5,74.1-73.3
				c41-11.8,68.6-2.4,68.6-2.4l9.8,5.9l6.2,33.8l-2.6,77.6l-18.2,30c0,0-6.7,24.5,18.2,51.1c2.1,2.2,4.3,4.4,6.6,6.4
				C648.6,252.9,650.3,254.3,652,255.7z"/>
		</defs>
		<use xlink:href="#XMLID_34_"  overflow="visible" fill="#FFC98B"/>
		<clipPath id="XMLID_15_">
			<use xlink:href="#XMLID_34_"  overflow="visible"/>
		</clipPath>
		<path clip-path="url(#XMLID_15_)" fill="#BF8264" d="M580.4,115.4c0,0,0.3,19.3-32.9,22.1c-19.5,0-21.2-13.2-34.3-14.5l-6.5,8.6
			l-32.7,5.8l4.3-15.2L580.4,115.4z"/>
	</g>
	<g>
		<path d="M537.9,136c1.8,0.6,3.6,0.8,5.5,1c1.8,0.2,3.7,0.1,5.5,0c3.6-0.3,7.2-1,10.7-2.1c0.9-0.3,1.8-0.5,2.6-0.8l2.6-1
			c0.4-0.2,0.9-0.3,1.3-0.5l1.3-0.6c0.8-0.4,1.7-0.8,2.5-1.1l5-2.5c1.6-0.9,3.2-1.9,4.9-2.7c-1.4,1.2-2.9,2.4-4.4,3.6
			c-1.6,1-3.1,2.1-4.7,3.1c-3.3,1.8-6.7,3.5-10.4,4.6c-3.6,1.1-7.4,1.8-11.3,1.7c-1.9,0-3.8-0.2-5.7-0.6
			C541.3,137.5,539.5,136.9,537.9,136z"/>
	</g>
	<g>
		<path d="M522.5,122.7c1,1.6,2.1,3.1,3.4,4.4c1.2,1.4,2.6,2.6,4,3.7c2.9,2.3,6,4.1,9.3,5.7c0.8,0.4,1.7,0.8,2.5,1.1l2.6,1
			c0.4,0.2,0.9,0.3,1.3,0.5l1.3,0.4c0.9,0.3,1.8,0.6,2.6,0.9l5.4,1.4c1.8,0.4,3.6,0.8,5.5,1.3c-1.9,0-3.7-0.2-5.6-0.3
			c-1.9-0.3-3.7-0.5-5.6-0.9c-3.7-0.9-7.3-1.9-10.8-3.6c-3.4-1.7-6.7-3.7-9.5-6.3c-1.4-1.3-2.7-2.7-3.8-4.3
			C524,126.2,523,124.5,522.5,122.7z"/>
	</g>
	<g>
		<path fill="#3C121A" d="M551.6,200.2c-0.8-2.9-1.8-5.7-2.9-8.4c-0.3-0.7-0.5-1.4-0.8-2.1l-0.9-2c-0.6-1.4-1.3-2.7-1.9-4
			c-1.3-2.6-2.7-5.3-4.2-7.8l-1.1-1.9l-1.2-1.9c-0.8-1.2-1.5-2.5-2.4-3.7l-2.5-3.7c-0.8-1.2-1.8-2.4-2.6-3.6
			c-1.7-2.4-3.6-4.7-5.4-7.1c-0.9-1.2-1.9-2.3-2.8-3.4l-2.8-3.4c-1.9-2.3-4-4.5-5.9-6.8c2.4,1.9,4.7,3.8,6.9,5.8
			c2.1,2.1,4.4,4.1,6.4,6.4c4.1,4.4,7.8,9.2,11.2,14.2c0.9,1.2,1.6,2.6,2.4,3.9l1.2,1.9l1.1,2c1.4,2.7,2.7,5.4,3.8,8.2
			c1.1,2.8,2.1,5.7,2.9,8.6C550.9,194.2,551.5,197.2,551.6,200.2z"/>
	</g>
	<path fill="#3B3B3B" d="M647.5,113.9c-8.7,20.9-42,33.7-42,33.7l6.5-31.5c0.9-4.4-1-8.9-4.9-11.1c-0.1,0-0.1-0.1-0.2-0.1
		c-7.8-4.3-10-7-10-7s-5.6-4.1,0-12.9c5.4-8.4,25.7-26.2,33.3-30.2c0.3-0.1,0.5-0.3,0.7-0.4c0,0-0.6-0.3-1.7-0.8
		c-6.1-2.4-28.4-9.2-67.4-2.8c-1.6,0.3-3.3,0.6-4.9,0.9c0,0,0,0-0.1,0v0l5.1-9.9l1.1-0.1l61.5-3.2l12.6-0.7c0,0,0.9,0.3,2.3,0.8
		c4.6,1.8,15.3,6.6,20.3,15.7C661.1,59.4,656.2,93.1,647.5,113.9z"/>
	<g>
		<defs>
			<path id="XMLID_33_" d="M597.7,156.4c0,24.4,15.3,44.2,34.1,44.2c18.8,0,39.2-18.8,44.2-42.7c4.9-23.6-1.1-47.9-20-47.9
				C637.2,110,597.7,132,597.7,156.4z"/>
		</defs>
		<use xlink:href="#XMLID_33_"  overflow="visible" fill="#FFC98B"/>
		<clipPath id="XMLID_16_">
			<use xlink:href="#XMLID_33_"  overflow="visible"/>
		</clipPath>
		<radialGradient id="SVGID_2_" cx="677.9656" cy="133.9303" r="86.8401" gradientUnits="userSpaceOnUse">
			<stop  offset="0" style="stop-color:#FF0900;stop-opacity:0.3"/>
			<stop  offset="0.287" style="stop-color:#FF442A;stop-opacity:0.2139"/>
			<stop  offset="0.7785" style="stop-color:#FFA36F;stop-opacity:6.645316e-02"/>
			<stop  offset="1" style="stop-color:#FFC98B;stop-opacity:0"/>
		</radialGradient>
		<circle clip-path="url(#XMLID_16_)" fill="url(#SVGID_2_)" cx="678" cy="133.9" r="86.8"/>
	</g>
	<ellipse fill="#FFFFFF" cx="500.1" cy="120.5" rx="15.5" ry="17"/>
	<ellipse fill="#FFFFFF" cx="547.5" cy="120.5" rx="22.8" ry="17"/>
	<circle cx="541.7" cy="120.5" r="3.8"/>
	<circle cx="496.2" cy="121.8" r="3.8"/>
	<path fill="#8FCEDA" d="M652,255.7l-21,61.4l-2.7-3.7l-13.1-18.1l-8.4-11.6h0c8.3-0.7,18.7-2.8,28.1-8.4c3.6-2.2,6.5-4.5,8.8-6.8
		C648.3,263.9,650.7,259.3,652,255.7z"/>
	<polygon opacity="0.38" fill="#284B71" points="628.4,313.4 627.1,317.1 613.5,298.2 615.3,295.2 	"/>
	<path fill="#284B71" d="M580.4,444c17.5-22.9,46.5-75.7,44.3-113.6c-0.5-7.9-2.9-14.8-5.8-20.8l0,0c8.2,6.6,12.1,45,12.1,45
		l35.3-2.9c0.6-30.2,11.6-77.8,11.6-77.8l15.1,10c0,0-7.3,30.7-5.2,59.5c2.2,28.8,17.1,75.5,21.7,90.4
		C714.2,448.7,580.4,444,580.4,444z"/>
	<g>
		<path fill="#3C121A" d="M502.7,173.6c-1.8,3.6-3.9,7.1-6,10.5c-2.1,3.4-4.4,6.8-6.8,10c-2.4,3.3-4.9,6.4-7.7,9.4
			c-1.4,1.5-2.8,3-4.4,4.3c-1.5,1.4-3.2,2.7-5.1,3.8l-1.2-2.7c4.5-1.3,9.1-2.1,13.7-2.7c4.6-0.6,9.2-0.8,13.9-0.6
			c2.3,0.1,4.6,0.3,6.9,0.6c2.3,0.3,4.6,0.8,6.8,1.3c2.3,0.6,4.5,1.3,6.6,2.1c2.1,0.9,4.2,1.9,6.2,3.1c-4.2-1.7-8.6-3-13.1-3.7
			c-2.2-0.4-4.5-0.6-6.7-0.8c-2.3-0.2-4.5-0.2-6.8-0.2c-2.3,0.1-4.5,0.1-6.8,0.3c-2.2,0.2-4.5,0.5-6.7,0.8
			c-4.5,0.6-8.9,1.5-13.2,2.7l-11.3,3.1l10.1-5.8c3.3-1.9,6.1-4.6,8.9-7.4c2.8-2.8,5.3-5.9,7.9-8.9
			C493.3,186.6,498,180.1,502.7,173.6z"/>
	</g>
	<g>
		<path fill="#3C121A" d="M495.6,207c0,0.5-0.1,1.2-0.1,1.8c0,0.6,0.1,1.3,0.1,1.9c0.1,1.3,0.3,2.5,0.6,3.8c0.6,2.5,1.5,5,2.7,7.3
			c0.3,0.6,0.7,1.1,1,1.7c0.3,0.6,0.7,1.1,1.1,1.6l1.2,1.6l1.3,1.5c0.8,1,1.9,1.9,2.8,2.8c1,0.9,2.1,1.7,3.1,2.5
			c-1.1-0.7-2.3-1.4-3.5-2.1c-1.1-0.8-2.2-1.6-3.2-2.5l-1.5-1.4l-1.4-1.5c-0.5-0.5-0.9-1-1.3-1.6c-0.4-0.6-0.9-1.1-1.3-1.7
			c-1.6-2.3-2.9-4.8-3.9-7.4c-0.5-1.3-0.9-2.7-1.2-4.1c-0.1-0.7-0.3-1.4-0.4-2.1c-0.1-0.7-0.2-1.4-0.2-2.3L495.6,207z"/>
	</g>
	<g>
		<path fill="#3C121A" d="M660,132.9c-2.8-0.2-5.5,0-8.2,0.5c-2.7,0.4-5.3,1.1-7.8,2.1c-2.5,1-4.9,2.2-7.1,3.7
			c-2.1,1.5-4.1,3.3-5.8,5.4c-1.8,2-3.3,4.2-4.8,6.5c-1.5,2.3-2.8,4.7-4,7.1c-1.2,2.4-2.3,4.9-3.1,7.5c-0.4,1.3-0.7,2.6-1,3.9
			c-0.2,1.3-0.3,2.7,0.2,4c-0.8-1.2-1-2.7-1.1-4.1c0-1.4,0.1-2.8,0.4-4.2c0.5-2.8,1.3-5.5,2.4-8.1c2.1-5.3,4.9-10.2,8.7-14.6
			c1.9-2.2,4-4.2,6.5-5.8c2.5-1.5,5.1-2.7,7.9-3.5c2.7-0.8,5.6-1.3,8.4-1.3C654.5,131.9,657.4,132.1,660,132.9z"/>
	</g>
	<g>
		<path fill="#3C121A" d="M623.4,151.6c1.2-0.1,2.3,0,3.4,0.1c1.1,0.1,2.2,0.3,3.3,0.6c2.2,0.6,4.2,1.6,5.9,3.1
			c1.7,1.5,2.9,3.5,3.5,5.5c0.7,2.1,0.9,4.2,0.8,6.3c-0.2-2.1-0.7-4.2-1.5-6c-0.8-1.9-2.2-3.5-3.8-4.6c-1.6-1.1-3.5-1.8-5.5-2.1
			c-1.9-0.3-4-0.3-5.8,0L623.4,151.6z"/>
	</g>
	<path fill="#1A1A1A" d="M555.4,360c-2.2,4.3-3.5,9.4-3,15.5c-7.9,0.6-15.2,3.3-21.4,7.5c0,0,0,0,0,0c-1,0.7-2.1,1.5-3,2.3
		c0,0-0.1,0-0.1,0.1c-0.1-0.1-0.2-0.2-0.3-0.3c-3.2-3-3.9-6.9-3.6-10.5c0.5-4.8,2.8-9.1,3.6-10.4c0-0.1,0.1-0.1,0.1-0.2l0.1-0.1
		c0-0.1,0.1-0.1,0.1-0.1v0c6.3-3.2,13.2-5.3,20.5-6.2c2.5-0.3,5-0.5,7.5-0.5c0.4,0,0.8,0,1.3,0C556.5,358.1,555.9,359,555.4,360z"/>
	<path d="M618,419.4L618,419.4c0,34.4-27.9,62.3-62.3,62.3c-34.4,0-62.3-27.9-62.3-62.3c0-4.3,0.4-8.5,1.3-12.6
		c2.4,1.6,5.1,2.6,8.4,2.6c4.3,0,7.5-0.7,10.2-2c-1.1,3.8-1.7,7.8-1.7,12c0,24.3,19.7,44.1,44.1,44.1c23.5,0,42.7-18.4,44-41.7
		c0-0.8,0.1-1.6,0.1-2.4c0-3.5-0.4-7-1.2-10.3c0.9-2.1,3.2-5.9,8.2-7.2c1.9-0.5,4.2-0.7,6.9-0.2c0.3,0.1,1.5,0.5,1.9,0.7
		c0,0.1,0,0.1,0.1,0.2C617.2,407.9,618,413.6,618,419.4z"/>
	<path d="M613.9,397.2L613.9,397.2c12.2,32.2-4,68.1-36.1,80.3c-32.1,12.2-68.1-3.9-80.3-36.1c-1.5-4-2.6-8.1-3.3-12.2
		c2.8,0.7,5.7,0.6,8.8-0.5c4.1-1.5,6.8-3.3,8.8-5.5c0.4,3.9,1.2,7.9,2.7,11.8c8.6,22.8,34.1,34.2,56.9,25.5
		c22-8.4,33.4-32.4,26.3-54.6c-0.2-0.8-0.5-1.5-0.8-2.3c-1.3-3.3-2.9-6.4-4.8-9.2c0.1-2.3,0.9-6.7,5.1-9.7c1.6-1.1,3.7-2.1,6.4-2.7
		c0.3-0.1,1.6-0.1,2.1,0c0,0.1,0.1,0.1,0.1,0.2C609.1,386.8,611.8,391.8,613.9,397.2z"/>
	<path opacity="0.38" fill="#284B71" d="M713,407.7l-5.8-1.1c0.1-14-10-77.3-12-90c1.7,9.5,4.6,21.1,7,33.2l5.1,27.3L713,407.7z"/>
	<path fill="#1A1A1A" d="M522.7,398.1C522.7,398.1,522.7,398.1,522.7,398.1C522.7,398.1,522.7,398.1,522.7,398.1L522.7,398.1z"/>
</g>
<g id="Nose">
	<g>
		<defs>
			<path id="XMLID_29_" d="M515.6,120.7c0,0-8.4,10.2-26.5,11.9c-18.1,1.7-100.3,9.3-100.3,9.3s-13.2,3.8-5.2,20.2
				s31.7,34.4,71.3,34.8s73.7-43.8,73.7-61.6S515.6,120.7,515.6,120.7z"/>
		</defs>
		<use xlink:href="#XMLID_29_"  overflow="visible" fill="#FFC98B"/>
		<clipPath id="XMLID_17_">
			<use xlink:href="#XMLID_29_"  overflow="visible"/>
		</clipPath>
		<linearGradient id="SVGID_3_" gradientUnits="userSpaceOnUse" x1="247.5192" y1="158.7238" x2="577.2802" y2="158.7238">
			<stop  offset="0.331" style="stop-color:#FF0900;stop-opacity:0.3"/>
			<stop  offset="0.523" style="stop-color:#FF442A;stop-opacity:0.2139"/>
			<stop  offset="0.8518" style="stop-color:#FFA36F;stop-opacity:6.645316e-02"/>
			<stop  offset="1" style="stop-color:#FFC98B;stop-opacity:0"/>
		</linearGradient>
		<circle clip-path="url(#XMLID_17_)" fill="url(#SVGID_3_)" cx="411.9" cy="158.7" r="164.4"/>
		<path clip-path="url(#XMLID_17_)" fill="#BF8264" d="M580.4,115.4c0,0,0.3,19.3-32.9,22.1c-19.5,0-21.2-13.2-34.3-14.5l-8.5,3.1
			l-29.9,4.8l3.5-8.7L580.4,115.4z"/>
	</g>
	<g>
		<path fill="#3C121A" d="M493.6,158.7c4.4-2.8,9-5.3,13.7-7.4c2.4-1.1,4.8-2,7.4-2.8c1.3-0.4,2.6-0.7,4-0.8
			c1.4-0.1,2.8-0.2,4.3,0.3c0.4,0.1,0.8,0.3,1.1,0.6c0.2,0.1,0.3,0.3,0.5,0.4c0.2,0.1,0.3,0.3,0.5,0.6c0.4,0.5,0.4,1.1,0.5,1.6
			c0,0.5-0.1,0.9-0.2,1.3c-0.4,1.5-1.1,2.7-1.8,3.9c-1.5,2.3-3.2,4.3-4.9,6.3c-3.5,3.9-7.4,7.4-11.4,10.8
			c-8.1,6.6-16.8,12.5-26.2,17c-4.7,2.3-9.6,4.2-14.7,5.4c-5.1,1.2-10.4,1.9-15.5,1c5.2,0.2,10.3-0.8,15.1-2.4
			c4.9-1.6,9.5-3.7,14.1-6.1c4.5-2.4,8.9-5.1,13.1-8c4.2-2.9,8.3-6,12.3-9.2c4-3.2,7.8-6.7,11.3-10.4c1.7-1.8,3.4-3.8,4.8-5.8
			c0.7-1,1.3-2.1,1.6-3.1c0.2-0.5,0.1-0.9,0.1-0.9c0,0-0.1-0.1-0.1-0.1c-0.1-0.1-0.1-0.2-0.2-0.2c-0.2-0.1-0.3-0.3-0.6-0.3
			c-0.9-0.4-2.1-0.4-3.3-0.3c-1.2,0.1-2.4,0.3-3.7,0.6c-2.5,0.6-4.9,1.3-7.3,2.2C503,154.4,498.2,156.5,493.6,158.7z"/>
	</g>
</g>
<g id="Forehead_piece">
	<path fill="#FFC98B" d="M583,117.9l-122.7,5.2c0,0,16.9-7.2,33.3-23.6c16.4-16.4,44.8-44.7,63.4-47.3c6.6-0.9,29.5-2.1,33.4,8.7
		C597.5,80.4,583,117.9,583,117.9z"/>
	<g>
		<path fill="#3C121A" d="M504.7,96.3c4.5-0.2,9-0.4,13.5-0.6l13.5-0.4c4.5-0.1,9-0.5,13.5-0.3c4.5,0.2,9,0.5,13.5,1.4v0.3
			c-4.5,0.8-9,1.1-13.5,1.4c-4.5,0.2-9-0.2-13.5-0.3l-13.5-0.4c-4.5-0.2-9-0.4-13.5-0.6V96.3z"/>
	</g>
	<g>
		<path fill="#3C121A" d="M514.7,84.5c3.9-0.2,7.7-0.4,11.6-0.6l11.6-0.4c3.9-0.1,7.7-0.5,11.6-0.3c3.9,0.2,7.7,0.5,11.6,1.4v0.3
			c-3.9,0.8-7.7,1.1-11.6,1.3c-3.9,0.2-7.7-0.2-11.6-0.3l-11.6-0.5c-3.9-0.2-7.7-0.4-11.6-0.6V84.5z"/>
	</g>
	<g>
		<path fill="#3C121A" d="M529.1,74c2.2-0.2,4.4-0.4,6.7-0.6c2.2-0.2,4.4-0.3,6.7-0.4c2.2-0.1,4.4-0.5,6.7-0.3
			c2.2,0.2,4.4,0.5,6.7,1.4v0.3c-2.2,0.8-4.4,1.1-6.7,1.3c-2.2,0.2-4.4-0.2-6.7-0.3c-2.2-0.1-4.4-0.3-6.7-0.5
			c-2.2-0.2-4.4-0.4-6.7-0.6V74z"/>
	</g>
</g>
<g id="Hair_Pieces">
	<path fill="#3B3B3B" d="M565.4,47.8c-0.4,1.4-1.6,2.5-3.4,3.1c-1.6,0.3-3.3,0.6-4.9,0.9c0,0,0,0-0.1,0c-2.5,0-5.4-0.4-8.3-1.3
		c-8-2.5-13.4-7.7-12.2-11.7c1.2-4,8.7-5.2,16.6-2.7c4.3,1.3,7.8,3.4,10,5.7C565.1,43.9,565.9,46,565.4,47.8z"/>
	<ellipse transform="matrix(0.5 -0.866 0.866 0.5 251.102 510.9857)" fill="#3B3B3B" cx="568.1" cy="38" rx="7.5" ry="15.1"/>
	<ellipse transform="matrix(0.5 -0.866 0.866 0.5 262.6295 524.6396)" fill="#3B3B3B" cx="585.7" cy="34.9" rx="7.5" ry="15.1"/>
	
		<ellipse transform="matrix(0.752 -0.6592 0.6592 0.752 126.3141 405.4765)" fill="#3B3B3B" cx="602" cy="34.9" rx="7.5" ry="15.1"/>
	<ellipse transform="matrix(0.866 -0.5 0.5 0.866 63.8621 314.4007)" fill="#3B3B3B" cx="618.6" cy="38" rx="7.5" ry="15.1"/>
	<path fill="#3B3B3B" d="M635.1,56.8c-1.6,0.3-3.2-0.5-4.7-1.9c0.3-0.1,0.5-0.3,0.7-0.4c0,0-0.6-0.3-1.7-0.8
		c-1.9-2.5-3.5-6.2-4.3-10.5c-0.3-1.6-0.4-3.1-0.4-4.5c-0.1-6.2,2-11,5.3-11.6c3.8-0.7,7.9,4.5,9.6,11.7c0.1,0.6,0.3,1.2,0.4,1.9
		C641.3,48.9,639.2,56.1,635.1,56.8z"/>
</g>
<g id="Left_Arm">
	
		<linearGradient id="SVGID_4_" gradientUnits="userSpaceOnUse" x1="680.7808" y1="342.8297" x2="773.0664" y2="317.9626" gradientTransform="matrix(1 -6.597887e-04 6.597887e-04 1 -0.195 0.4668)">
		<stop  offset="0" style="stop-color:#688DA7"/>
		<stop  offset="7.947600e-02" style="stop-color:#7EA4BA"/>
		<stop  offset="0.1917" style="stop-color:#96BCCE"/>
		<stop  offset="0.3181" style="stop-color:#A9CFDE"/>
		<stop  offset="0.4648" style="stop-color:#B6DDE9"/>
		<stop  offset="0.65" style="stop-color:#BEE5EF"/>
		<stop  offset="1" style="stop-color:#C0E7F1"/>
	</linearGradient>
	<path fill="url(#SVGID_4_)" d="M749.8,368.8c-11.1-2-22.9,0.7-31.2,3.6c-6.7,2.3-11.2,4.7-11.2,4.7l-5.1-27.3
		c-2.4-12.1-5.3-23.7-7-33.2c-0.1-0.5-0.2-1-0.2-1.3c-0.1-0.6-0.1-0.9-0.1-0.9l0,0c-1.7-10.5-1.6-18.2,2.9-20.7
		c9.3-4.2,33.5,22.1,40.9,40.4C742.9,343.3,746.8,354.7,749.8,368.8z"/>
	<path fill="#FFC98B" d="M722.9,462.2l-98.1-38.6c-2.6-0.8-4.9-2.2-6.7-4.1v0c0-5.8-0.8-11.5-2.3-16.9c0,0,0-0.1,0.1-0.1
		c0,0-0.1-0.1-0.1-0.1c-0.4-0.2-1.6-0.7-1.9-0.7c-10-1.6-13.8,4.5-15.1,7.5c-0.4,0.9-0.5,1.5-0.5,1.5l-7.3,3.3c0,0-8.8-1.5-18-7.1
		c-0.9-0.5-1.7-1.1-2.5-1.6c-3.4-2.3-6.8-5.3-9.7-8.9h0l0,0c-2.4-3-4.5-6.5-6-10.6c-0.3-0.9-0.6-1.8-0.9-2.7
		c-0.2-0.5-0.3-1.1-0.5-1.7c-0.5-2-0.8-3.9-0.9-5.8c-0.6-7.5,1.6-13.6,4.7-18.3c1-1.6,2.2-3,3.4-4.3c7.6-8.2,19.6-10.4,29.9-6
		c10.9,4.7,18.4,13,23.1,21.7c0,0,0,0,0,0c0,0,0,0,0,0.1c0.1,0.3,0.6,1.4,1.4,2.9c0,0,0,0,0,0c2.8,5.1,9.2,15.5,19.2,21.2l73.1,13.6
		l5.8,1.1l-5.7-30.6c0,0,4.5-2.4,11.2-4.7c8.3-2.9,20.1-5.6,31.2-3.6c4.1,19,6.9,42.9,7.5,72.5C757.9,455.4,740.5,468.3,722.9,462.2
		z"/>
	<path fill="#3C121A" d="M569,356.3c-2,2-3.7,4.2-5.1,6.5c-1.4,2.4-2.6,4.9-3.6,7.4c-1,2.6-1.8,5.2-2.5,7.8c-0.7,2.6-1.7,7.6-2,10.3
		l-1-2.5c-0.3-0.9-0.6-1.8-0.9-2.7c0.5-1.9,1.1-3.8,1.8-5.7c1-2.7,2.1-5.3,3.3-7.8c1.3-2.5,2.7-4.9,4.4-7.2
		C565,360.1,566.9,358,569,356.3z"/>
	<path fill="#3C121A" d="M560.6,396.3c1.1-2.7,2.3-5.2,3.7-7.7c1.4-2.5,2.9-4.9,4.5-7.2c1.7-2.3,3.4-4.5,5.4-6.5
		c2-2,4.2-3.7,6.6-5.2c-2.3,1.6-4.3,3.6-6.1,5.7c-1.8,2.1-3.3,4.4-4.7,6.8c-1.4,2.4-2.6,4.8-3.7,7.4c-1.1,2.5-2.6,6.8-3.4,9.3
		L560.6,396.3z"/>
	<path fill="#3C121A" d="M590.3,379.5c-2.3,1.6-4.3,3.6-6.1,5.7c-1.7,2.1-3.3,4.4-4.7,6.8c-1.4,2.4-2.6,4.8-3.7,7.4
		c-1.1,2.5-2.1,5.1-2.9,7.6c-0.9-0.5-1.7-1.1-2.5-1.6c1-2.4,2.1-4.7,3.4-7c1.4-2.5,2.8-4.9,4.5-7.2c1.7-2.3,3.5-4.5,5.4-6.5
		C585.7,382.7,587.9,380.9,590.3,379.5z"/>
</g>
<g id="Tire_BL">
	<path d="M826.4,505.8h-13c-22.7,0-41.1,28.5-41.1,63.7c0,35.2,18.4,63.7,41.1,63.7h13c22.7,0,41.1-28.5,41.1-63.7
		C867.4,534.3,849.1,505.8,826.4,505.8z M830.1,610.5c-14.2,0-25.7-17.3-26.4-39.1c0-0.6,0-1.3,0-2c0-0.6,0-1.3,0-1.9
		c0.7-21.7,12.2-39.1,26.4-39.1c8.7,0,16.5,6.6,21.3,16.7c3.2,6.8,5.2,15.2,5.2,24.3c0,9.1-1.9,17.5-5.2,24.3
		C846.5,604,838.8,610.5,830.1,610.5z"/>
	<linearGradient id="SVGID_5_" gradientUnits="userSpaceOnUse" x1="803.6506" y1="569.5164" x2="856.4906" y2="569.5164">
		<stop  offset="0" style="stop-color:#3B3B3B"/>
		<stop  offset="7.724589e-02" style="stop-color:#434343"/>
		<stop  offset="0.4646" style="stop-color:#646464"/>
		<stop  offset="0.786" style="stop-color:#797979"/>
		<stop  offset="1" style="stop-color:#808080"/>
	</linearGradient>
	<path fill="url(#SVGID_5_)" d="M856.5,569.5c0,9.1-1.9,17.5-5.2,24.3c-4.8,10.1-12.5,16.7-21.3,16.7c-14.2,0-25.7-17.3-26.4-39.1
		c0.7,20,11.3,35.9,24.3,35.9c13.5,0,24.4-16.9,24.4-37.8c0-20.9-10.9-37.8-24.4-37.8c-13,0-23.7,15.9-24.3,35.9
		c0.7-21.7,12.2-39.1,26.4-39.1c8.7,0,16.5,6.6,21.3,16.7C854.6,552,856.5,560.4,856.5,569.5z"/>
	<path fill="#B3B3B3" d="M852.4,569.5c0,20.9-10.9,37.8-24.4,37.8c-13,0-23.7-15.9-24.3-35.9c0-0.6,0-1.3,0-2c0-0.6,0-1.3,0-1.9
		c0.7-20,11.3-35.9,24.3-35.9C841.5,531.7,852.4,548.6,852.4,569.5z"/>
	<linearGradient id="SVGID_6_" gradientUnits="userSpaceOnUse" x1="811.2438" y1="569.5155" x2="848.862" y2="569.5155">
		<stop  offset="0" style="stop-color:#3B3B3B"/>
		<stop  offset="7.724589e-02" style="stop-color:#434343"/>
		<stop  offset="0.4646" style="stop-color:#646464"/>
		<stop  offset="0.786" style="stop-color:#797979"/>
		<stop  offset="1" style="stop-color:#808080"/>
	</linearGradient>
	<ellipse fill="url(#SVGID_6_)" cx="830.1" cy="569.5" rx="18.8" ry="29.2"/>
	<g>
		<defs>
			<ellipse id="XMLID_28_" cx="827.9" cy="569.5" rx="14.5" ry="22.5"/>
		</defs>
		<use xlink:href="#XMLID_28_"  overflow="visible" fill="#B3B3B3"/>
		<clipPath id="XMLID_18_">
			<use xlink:href="#XMLID_28_"  overflow="visible"/>
		</clipPath>
		<linearGradient id="SVGID_7_" gradientUnits="userSpaceOnUse" x1="828.1674" y1="539.6521" x2="828.1674" y2="580.1563">
			<stop  offset="0" style="stop-color:#FFFFFF;stop-opacity:0"/>
			<stop  offset="1" style="stop-color:#000000"/>
		</linearGradient>
		<path clip-path="url(#XMLID_18_)" fill="url(#SVGID_7_)" d="M845.3,562.1c-3.3,7.2-9.5,12-16.7,12c-7.9,0-14.7-6-17.7-14.5
			c2.1-13.2,9.3-23,17.6-23C837.4,536.7,844.4,547.7,845.3,562.1z"/>
		<linearGradient id="SVGID_8_" gradientUnits="userSpaceOnUse" x1="827.8888" y1="564.2664" x2="827.8888" y2="611.4639">
			<stop  offset="0" style="stop-color:#FFFFFF"/>
			<stop  offset="0.1619" style="stop-color:#DBDBDB;stop-opacity:0.8381"/>
			<stop  offset="0.5227" style="stop-color:#808080;stop-opacity:0.4773"/>
			<stop  offset="1" style="stop-color:#000000;stop-opacity:0"/>
		</linearGradient>
		<path clip-path="url(#XMLID_18_)" fill="url(#SVGID_8_)" d="M845.4,566.7c-0.4,16.6-8.5,30-18.2,30s-17.2-13.4-16.8-30
			c0.1-2.4,0.3-4.8,0.7-7c2.9,8.5,9.7,14.5,17.7,14.5c7.1,0,13.4-4.8,16.7-12C845.4,563.6,845.5,565.1,845.4,566.7z"/>
	</g>
	<path fill="none" stroke="#FFFFFF" stroke-width="3" stroke-linecap="round" stroke-linejoin="round" stroke-miterlimit="10" d="
		M834.9,585c0,0,9.1-15.7,0-28.3"/>
</g>
<g id="Tire_FL">
	<path d="M478.6,549.9h-21.1c-36.8,0-67.8,37.9-69.3,84.7s27.9,80.9,64,84.7c7,0.8,14.1,1.6,21.2,1.4c36.8,0,67.8-39.3,69.2-86.1
		S515.4,549.9,478.6,549.9z M515.5,667c-8.2,13.4-21,22.2-35.2,22.2c-22.3,0-39.9-21.6-41.2-49.2c0-0.8-0.1-1.6-0.1-2.5
		c0-0.9,0-1.9,0-2.8s0.1-1.9,0.1-2.8c0.1-0.8,0.1-1.6,0.2-2.5c2.9-27.6,21.9-49.2,44.2-49.2c14.2,0,26.4,8.7,33.8,22.2
		c5,9,7.7,20.2,7.4,32.4S521,657.9,515.5,667z"/>
	<linearGradient id="SVGID_9_" gradientUnits="userSpaceOnUse" x1="439.0851" y1="634.6355" x2="524.8628" y2="634.6355">
		<stop  offset="0" style="stop-color:#3B3B3B"/>
		<stop  offset="7.724589e-02" style="stop-color:#434343"/>
		<stop  offset="0.4646" style="stop-color:#646464"/>
		<stop  offset="0.786" style="stop-color:#797979"/>
		<stop  offset="1" style="stop-color:#808080"/>
	</linearGradient>
	<path fill="url(#SVGID_9_)" d="M524.8,634.6c-0.4,12.1-3.8,23.3-9.4,32.4c-8.2,13.4-21,22.2-35.2,22.2c-22.3,0-39.9-21.6-41.2-49.2
		c1.3,25.3,17.5,45,37.9,45c21.8,0,40.2-22.5,41.1-50.3s-16.1-50.3-38-50.3c-20.4,0-37.9,19.7-40.7,45c2.9-27.6,21.9-49.2,44.2-49.2
		c14.2,0,26.4,8.7,33.8,22.2C522.4,611.3,525.2,622.5,524.8,634.6z"/>
	<path fill="#B3B3B3" d="M518.1,634.6c-0.9,27.8-19.3,50.3-41.1,50.3c-20.4,0-36.6-19.7-37.9-45c0-0.8-0.1-1.6-0.1-2.5
		c0-0.9,0-1.9,0-2.8s0.1-1.9,0.1-2.8c0.1-0.8,0.1-1.6,0.2-2.5c2.9-25.3,20.3-45,40.7-45C502,584.4,519,606.9,518.1,634.6z"/>
	<linearGradient id="SVGID_10_" gradientUnits="userSpaceOnUse" x1="451.3889" y1="634.6355" x2="512.4797" y2="634.6355">
		<stop  offset="0" style="stop-color:#3B3B3B"/>
		<stop  offset="7.724589e-02" style="stop-color:#434343"/>
		<stop  offset="0.4646" style="stop-color:#646464"/>
		<stop  offset="0.786" style="stop-color:#797979"/>
		<stop  offset="1" style="stop-color:#808080"/>
	</linearGradient>
	<path fill="url(#SVGID_10_)" d="M512.5,634.6c-0.7,21.4-14.9,38.8-31.7,38.8s-30-17.4-29.3-38.8c0.7-21.4,14.9-38.8,31.7-38.8
		S513.1,613.2,512.5,634.6z"/>
	<g>
		<defs>
			
				<ellipse id="XMLID_11_" transform="matrix(8.097405e-02 -0.9967 0.9967 8.097405e-02 -192.8687 1060.0981)" cx="478.4" cy="634.6" rx="30" ry="23.5"/>
		</defs>
		<use xlink:href="#XMLID_11_"  overflow="visible" fill="#B3B3B3"/>
		<clipPath id="XMLID_19_">
			<use xlink:href="#XMLID_11_"  overflow="visible"/>
		</clipPath>
		<linearGradient id="SVGID_11_" gradientUnits="userSpaceOnUse" x1="478.7956" y1="607.6074" x2="478.7956" y2="648.1115">
			<stop  offset="0" style="stop-color:#FFFFFF;stop-opacity:0"/>
			<stop  offset="1" style="stop-color:#000000"/>
		</linearGradient>
		<path clip-path="url(#XMLID_19_)" fill="url(#SVGID_11_)" d="M501.9,630.1c-4.4,7.2-12.8,12-22.4,12c-10.7,0-19.8-6-23.7-14.5
			c2.9-13.2,12.5-23,23.6-23C491.2,604.7,500.6,615.7,501.9,630.1z"/>
		<linearGradient id="SVGID_12_" gradientUnits="userSpaceOnUse" x1="478.4209" y1="632.2217" x2="478.4209" y2="679.4193">
			<stop  offset="0" style="stop-color:#FFFFFF"/>
			<stop  offset="0.1619" style="stop-color:#DBDBDB;stop-opacity:0.8381"/>
			<stop  offset="0.5227" style="stop-color:#808080;stop-opacity:0.4773"/>
			<stop  offset="1" style="stop-color:#000000;stop-opacity:0"/>
		</linearGradient>
		<path clip-path="url(#XMLID_19_)" fill="url(#SVGID_12_)" d="M502,634.6c-0.5,16.6-11.5,30-24.5,30c-13,0-23.2-13.4-22.7-30
			c0.1-2.4,0.4-4.8,0.9-7c3.9,8.5,13.1,14.5,23.7,14.5c9.6,0,18-4.8,22.4-12C502,631.6,502.1,633.1,502,634.6z"/>
	</g>
	<path fill="none" stroke="#FFFFFF" stroke-width="3" stroke-linecap="round" stroke-linejoin="round" stroke-miterlimit="10" d="
		M490.6,653.4c0,0,11.8-20.4,0-36.8"/>
	<circle fill="#FFFFFF" cx="487" cy="612.3" r="2"/>
</g>
<g id="Tire_FR">
	<g>
		<path d="M337.3,580c0,46.6-27.7,84.4-61.8,84.4H256c-34.1,0-61.8-37.8-61.8-84.4s27.6-84.4,61.8-84.4h19.6
			C309.7,495.6,337.3,533.4,337.3,580z"/>
	</g>
</g>
<g id="Car_Body">
	<polygon fill="#333333" points="878.7,516.1 909.2,517.3 909.2,534.1 906.4,535.7 879.3,534.4 	"/>
	<path fill="#F7381E" d="M172,567.2l3.9-55.8c0,0-0.4-6.2,6.2-9.7c6.6-3.5,13.3-4.8,13.3-4.8l0.8,75L172,567.2z"/>
	<path fill="#808080" d="M194.9,509.7h-6.5c-9.4,0-17.1,11.7-17.1,26s7.6,26,17.1,26h6.5c9.4,0,17.1-11.7,17.1-26
		S204.3,509.7,194.9,509.7z M202.7,537c-0.2,8-3.1,15-7.3,18.5c-2.2,2-4.8,3.2-7.5,3.2c-0.5,0-0.9,0-1.4-0.1
		c-7.5-1.1-13.4-10.9-13.4-22.8s5.9-21.7,13.4-22.8c0.5-0.1,0.9-0.1,1.4-0.1c7.2,0,13.3,8.1,14.5,18.7c0,0.3,0.1,0.7,0.1,1
		c0,0.4,0.1,0.7,0.1,1.1c0,0.4,0,0.8,0,1.1c0,0.3,0,0.6,0,0.9C202.7,536.2,202.7,536.6,202.7,537z"/>
	<g>
		<defs>
			<path id="XMLID_14_" d="M202.7,535.8c0,0.4,0,0.8,0,1.2c-0.3,7.9-3.1,14.7-7.3,18.5c-1.9,1.6-4,2.5-6.3,2.5
				c-1.4,0-2.9-0.4-4.2-1.1c-5.5-2.9-9.4-11.2-9.4-21c0-9.4,3.7-17.5,8.8-20.6c1.5-0.9,3.1-1.4,4.8-1.4c6.6,0,12.1,7.6,13.4,17.7
				c0,0.3,0.1,0.7,0.1,1c0,0.4,0.1,0.7,0.1,1.1c0,0.4,0,0.7,0,1.1C202.7,535.2,202.7,535.5,202.7,535.8z"/>
		</defs>
		<use xlink:href="#XMLID_14_"  overflow="visible" opacity="0.49" fill="#E6E6E6"/>
		<clipPath id="XMLID_20_">
			<use xlink:href="#XMLID_14_"  overflow="visible" opacity="0.49"/>
		</clipPath>
		<radialGradient id="SVGID_13_" cx="190.0039" cy="550.6921" r="38.2968" gradientUnits="userSpaceOnUse">
			<stop  offset="0.3206" style="stop-color:#FFFFFF"/>
			<stop  offset="1" style="stop-color:#FFFFFF;stop-opacity:0"/>
		</radialGradient>
		<path opacity="0.49" clip-path="url(#XMLID_20_)" fill="url(#SVGID_13_)" d="M166.1,552.2c15.8-18.4,32.2-16.1,48.8,0l0-50.1
			h-50.1L166.1,552.2z"/>
	</g>
	<linearGradient id="SVGID_14_" gradientUnits="userSpaceOnUse" x1="187.8456" y1="548.0576" x2="187.8456" y2="518.7875">
		<stop  offset="0.1155" style="stop-color:#808080"/>
		<stop  offset="0.8462" style="stop-color:#000000"/>
	</linearGradient>
	<path fill="url(#SVGID_14_)" d="M175.5,536c0,9.8,4,18.1,9.4,21c1.3,0.7,2.7,1.1,4.2,1.1c2.3,0,4.5-0.9,6.3-2.5
		c-2.2,2-4.8,3.2-7.5,3.2c-0.5,0-0.9,0-1.4-0.1c-7.5-1.1-13.4-10.9-13.4-22.8s5.9-21.7,13.4-22.8c0.5-0.1,0.9-0.1,1.4-0.1
		c7.2,0,13.3,8.1,14.5,18.7c-1.2-10.1-6.7-17.7-13.4-17.7c-1.7,0-3.3,0.5-4.8,1.4C179.2,518.5,175.5,526.5,175.5,536z"/>
	<g>
		<defs>
			<path id="XMLID_12_" d="M879.3,499c0,0,0.1,8.4-1.8,13l-0.6,0.4l-3.8,2.4c-5.2-10.6-10.8-21.8-11.6-23.2
				c-1.5-2.7-3.5-2.7-3.5-2.7s-27.7,2-31.9,2.5c-4.2,0.5-6.1,5.4-6.1,5.4s-20.4,47-22.5,52.7c-2,5.8-2.4,9.6-2.4,9.6s0,2,0,5.2
				l-19.5,12.4l-209.3,36.9l-11.2-0.3c-0.1-0.4-0.2-0.8-0.3-1.3V598c0,0,0-4.6-1.4-8.7c-1.4-4-24.8-55.5-24.8-55.5s-2-4-6.7-4
				c-4.4,0-57.4,2.5-63.7,2.8c-0.6,0-1.2,0.1-1.7,0.3c-1.7,0.6-4.8,2.4-6.9,7.6c-2.6,6.3-20.2,56.2-24.9,69.5l-66.4-1.7l-18.3-5.6
				l-27.7-8.4l-123-23.8l-2.3-73.2c0,0-0.2-1.8,1.4-2.2c1.6-0.3,117.1,12.2,117.1,12.2s10.4,0.4,22.5-2.9
				C340,501.2,566.3,450,566.3,450s6.1-2.3,6.1-7.1c0-4.8,0-7.4,0-7.4s5.7-2.5,13.6-2.8c7.8-0.3,275.1-10.1,275.1-10.1
				s5.2-0.3,6.1,3.3c0.9,3.6,11.5,42.3,11.5,42.3s0.8,3.5,0.6,6.5C879.1,477.7,879.3,499,879.3,499z"/>
		</defs>
		<use xlink:href="#XMLID_12_"  overflow="visible" fill="#F7381E"/>
		<clipPath id="XMLID_21_">
			<use xlink:href="#XMLID_12_"  overflow="visible"/>
		</clipPath>
		<linearGradient id="SVGID_15_" gradientUnits="userSpaceOnUse" x1="488.5779" y1="706.3294" x2="488.5779" y2="416.6117">
			<stop  offset="0.4764" style="stop-color:#FF0900;stop-opacity:0.9734"/>
			<stop  offset="1" style="stop-color:#F7381E;stop-opacity:0"/>
		</linearGradient>
		<path clip-path="url(#XMLID_21_)" fill="url(#SVGID_15_)" d="M165.3,557.4c0,0,148.9,29.6,154.5,28c5.6-1.7-6.3-83.8-3.2-89.8
			c3.1-6,249.7-68.3,249.7-68.3L789,416.6l30.8,89.2l-38.3,152l-525,48.6l-99.3-86.4L165.3,557.4z"/>
		<polygon opacity="0.4" clip-path="url(#XMLID_21_)" fill="#FFFFFF" points="572,439.3 571.8,432.7 867.4,420.5 871.5,427.1 		"/>
	</g>
	<g>
		<rect x="571.6" y="522.1" fill="#FF0900" width="17.6" height="9.3"/>
		<linearGradient id="SVGID_16_" gradientUnits="userSpaceOnUse" x1="592.3698" y1="570.0062" x2="565.3923" y2="468.2237">
			<stop  offset="0.3674" style="stop-color:#FF0900;stop-opacity:0"/>
			<stop  offset="0.4032" style="stop-color:#FD2410;stop-opacity:0.1493"/>
			<stop  offset="0.4663" style="stop-color:#FB4E28;stop-opacity:0.413"/>
			<stop  offset="0.5236" style="stop-color:#F96C39;stop-opacity:0.652"/>
			<stop  offset="0.5723" style="stop-color:#F77E44;stop-opacity:0.8557"/>
			<stop  offset="0.6069" style="stop-color:#F78548"/>
		</linearGradient>
		<rect x="569.6" y="518.1" fill="url(#SVGID_16_)" width="21.6" height="13.3"/>
		<linearGradient id="SVGID_17_" gradientUnits="userSpaceOnUse" x1="592.3698" y1="570.0062" x2="565.3923" y2="468.2237">
			<stop  offset="0.3674" style="stop-color:#FF0900;stop-opacity:0"/>
			<stop  offset="0.3916" style="stop-color:#FF2E26;stop-opacity:0.1011"/>
			<stop  offset="0.4367" style="stop-color:#FF6C67;stop-opacity:0.2894"/>
			<stop  offset="0.4797" style="stop-color:#FFA19D;stop-opacity:0.4689"/>
			<stop  offset="0.5194" style="stop-color:#FFCAC8;stop-opacity:0.6345"/>
			<stop  offset="0.555" style="stop-color:#FFE7E6;stop-opacity:0.7834"/>
			<stop  offset="0.5854" style="stop-color:#FFF9F8;stop-opacity:0.9102"/>
			<stop  offset="0.6069" style="stop-color:#FFFFFF"/>
		</linearGradient>
		<rect x="569.6" y="518.1" fill="url(#SVGID_17_)" width="21.6" height="13.3"/>
		<rect x="571.6" y="520.1" fill="#F7381E" width="17.6" height="9.3"/>
	</g>
	<g>
		<polygon fill="#FF0900" points="428.7,507 571.6,472.2 571.6,462.8 428.7,497.7 		"/>
		<linearGradient id="SVGID_18_" gradientUnits="userSpaceOnUse" x1="510.5728" y1="522.2195" x2="487.1203" y2="433.7361">
			<stop  offset="0.3674" style="stop-color:#FF0900;stop-opacity:0"/>
			<stop  offset="0.4032" style="stop-color:#FD2410;stop-opacity:0.1493"/>
			<stop  offset="0.4663" style="stop-color:#FB4E28;stop-opacity:0.413"/>
			<stop  offset="0.5236" style="stop-color:#F96C39;stop-opacity:0.652"/>
			<stop  offset="0.5723" style="stop-color:#F77E44;stop-opacity:0.8557"/>
			<stop  offset="0.6069" style="stop-color:#F78548"/>
		</linearGradient>
		<polygon fill="url(#SVGID_18_)" points="426.7,494.1 573.6,458.3 573.6,471.7 426.7,507.5 		"/>
		<linearGradient id="SVGID_19_" gradientUnits="userSpaceOnUse" x1="510.5728" y1="522.2195" x2="487.1203" y2="433.7361">
			<stop  offset="0.3674" style="stop-color:#FF0900;stop-opacity:0"/>
			<stop  offset="0.3916" style="stop-color:#FF2E26;stop-opacity:0.1011"/>
			<stop  offset="0.4367" style="stop-color:#FF6C67;stop-opacity:0.2894"/>
			<stop  offset="0.4797" style="stop-color:#FFA19D;stop-opacity:0.4689"/>
			<stop  offset="0.5194" style="stop-color:#FFCAC8;stop-opacity:0.6345"/>
			<stop  offset="0.555" style="stop-color:#FFE7E6;stop-opacity:0.7834"/>
			<stop  offset="0.5854" style="stop-color:#FFF9F8;stop-opacity:0.9102"/>
			<stop  offset="0.6069" style="stop-color:#FFFFFF"/>
		</linearGradient>
		<polygon fill="url(#SVGID_19_)" points="426.7,494.1 573.6,458.3 573.6,471.7 426.7,507.5 		"/>
		<polygon fill="#F7381E" points="428.7,505 571.6,470.2 571.6,460.8 428.7,495.7 		"/>
	</g>
	<g>
		<defs>
			<path id="XMLID_10_" d="M886.7,535.1c0,0,0,19.7,0,20.9c0,1.2-0.8,1.7-0.8,1.7s-0.3,0-1.5,0c-1.2,0-1.3-1.8-1.3-1.8
				s-0.7-18.8-0.7-20.8c0-1-4.5-10.4-9.3-20.3c-5.2-10.6-10.8-21.8-11.6-23.2c-1.5-2.7-3.5-2.7-3.5-2.7s-27.7,2-31.9,2.5
				c-4.2,0.5-6.1,5.4-6.1,5.4s-20.4,47-22.5,52.7c-2,5.8-2.4,9.6-2.4,9.6s0,2,0,5.2v6.3c0,6.6-5.6,6.1-5.6,6.1h-13.9
				c0,0,0-9.1,0-15.8c0-0.9,0.1-1.9,0.2-2.9c0.9-6,4-12.4,4-12.4s24.6-59.8,27.4-65.1c2.8-5.3,6-5.7,6-5.7s33.6-2.2,36.1-2
				c2.5,0.1,5.1,1.1,5.1,1.1s3.6,3.1,5.6,5.3c2,2.2,4.5,7.3,4.5,7.3s6.5,13.7,12.3,26c4.5,9.6,8.7,18.3,9,19.1
				C886.7,533.2,886.7,535.1,886.7,535.1z"/>
		</defs>
		<use xlink:href="#XMLID_10_"  overflow="visible" fill="#FF0900"/>
		<clipPath id="XMLID_22_">
			<use xlink:href="#XMLID_10_"  overflow="visible"/>
		</clipPath>
		<path clip-path="url(#XMLID_22_)" fill="#F7381E" d="M886.7,533.5c0,0,0,20.4,0,21.7c0,1.3-0.8,1.7-0.8,1.7s-0.3,0-1.6,0
			c-1.2,0-1.4-1.9-1.4-1.9s-0.7-19.5-0.7-21.6c0-1-4.7-10.8-9.7-21c-5.4-11.1-11.3-22.6-12.1-24.1c-1.6-2.8-3.7-2.8-3.7-2.8
			s-28.8,2.1-33.2,2.6c-4.4,0.5-6.3,5.6-6.3,5.6s-21.2,48.8-23.4,54.8c-2.1,6-2.5,10-2.5,10s0,2.1,0,5.4v6.6c0,6.8-5.8,6.3-5.8,6.3
			h-14.5c0,0,0-9.5,0-16.4c0-1,0.1-2,0.2-3.1c0.9-6.2,4.2-12.9,4.2-12.9s25.6-62.2,28.5-67.6c2.9-5.5,6.3-6,6.3-6s34.9-2.3,37.5-2.1
			c2.6,0.2,5.3,1.1,5.3,1.1s3.7,3.2,5.8,5.5c2.1,2.3,4.7,7.6,4.7,7.6s6.7,14.2,12.8,27c4.7,9.9,9,19,9.4,19.8
			C886.7,531.5,886.7,533.5,886.7,533.5z"/>
	</g>
	<g>
		<polygon fill="#FF0900" points="534.7,540.5 571.6,531.5 571.6,522.2 534.7,531.2 		"/>
		<linearGradient id="SVGID_20_" gradientUnits="userSpaceOnUse" x1="562.1445" y1="563.2428" x2="541.9378" y2="487.0058">
			<stop  offset="0.3674" style="stop-color:#FF0900;stop-opacity:0"/>
			<stop  offset="0.4032" style="stop-color:#FD2410;stop-opacity:0.1493"/>
			<stop  offset="0.4663" style="stop-color:#FB4E28;stop-opacity:0.413"/>
			<stop  offset="0.5236" style="stop-color:#F96C39;stop-opacity:0.652"/>
			<stop  offset="0.5723" style="stop-color:#F77E44;stop-opacity:0.8557"/>
			<stop  offset="0.6069" style="stop-color:#F78548"/>
		</linearGradient>
		<polygon fill="url(#SVGID_20_)" points="532.7,527.7 573.6,517.6 573.6,531.1 532.7,541.1 		"/>
		<linearGradient id="SVGID_21_" gradientUnits="userSpaceOnUse" x1="562.1445" y1="563.2428" x2="541.9378" y2="487.0058">
			<stop  offset="0.3674" style="stop-color:#FF0900;stop-opacity:0"/>
			<stop  offset="0.3916" style="stop-color:#FF2E26;stop-opacity:0.1011"/>
			<stop  offset="0.4367" style="stop-color:#FF6C67;stop-opacity:0.2894"/>
			<stop  offset="0.4797" style="stop-color:#FFA19D;stop-opacity:0.4689"/>
			<stop  offset="0.5194" style="stop-color:#FFCAC8;stop-opacity:0.6345"/>
			<stop  offset="0.555" style="stop-color:#FFE7E6;stop-opacity:0.7834"/>
			<stop  offset="0.5854" style="stop-color:#FFF9F8;stop-opacity:0.9102"/>
			<stop  offset="0.6069" style="stop-color:#FFFFFF"/>
		</linearGradient>
		<polygon fill="url(#SVGID_21_)" points="532.7,527.7 573.6,517.6 573.6,531.1 532.7,541.1 		"/>
		<polygon fill="#F7381E" points="534.7,538.5 571.6,529.5 571.6,520.2 534.7,529.2 		"/>
	</g>
	<g>
		<defs>
			<path id="XMLID_9_" d="M566.3,597.8v15.9c0,1.7,0,2.8,0,2.8h-6.9c0,0-3.3-0.2-4.4-3.1c-0.1-0.4-0.2-0.8-0.3-1.3V598
				c0,0,0-4.6-1.4-8.7c-1.4-4-24.8-55.5-24.8-55.5s-2-4-6.7-4c-4.4,0-57.4,2.5-63.7,2.8c-0.6,0-1.2,0.1-1.7,0.3
				c-1.7,0.6-4.8,2.4-6.9,7.6c-2.6,6.3-20.2,56.2-24.9,69.5c-0.7,2.1-1.2,3.3-1.2,3.3s-1.6,6-11.5,6.5c-9.9,0.5-43.8-5.5-43.8-5.5
				l-28.4-6l0.1-5.6l0-2.9c-1.3-0.3,11-74.5,11-74.5s-0.3-9,22.4-10.3c3-0.2,7.6-0.4,13.4-0.7c8.7-0.4,20-0.9,32.4-1.5
				c-4.2,1-8.3,2.3-10.1,3.2c-3.7,1.8-6.5,2.1-6.5,2.1H386c0,0-1.1,1.1,0,2.3h16.5c0,0,4.1-0.3,7.1-2.3c2.9-2,18.5-5.7,18.5-5.7
				c3.3-0.1,6.7-0.3,10.1-0.4c38.9-1.6,79.8-3.3,79.8-3.3s10-0.3,14.8,8.3c3.9,6.9,21.3,46.6,28,62.1c1.7,3.8,2.7,6.2,2.7,6.2
				s1.4,3.6,2.2,7.8C566,594.7,566.3,596.3,566.3,597.8z"/>
		</defs>
		<use xlink:href="#XMLID_9_"  overflow="visible" fill="#F7381E"/>
		<clipPath id="XMLID_23_">
			<use xlink:href="#XMLID_9_"  overflow="visible"/>
		</clipPath>
		<linearGradient id="SVGID_22_" gradientUnits="userSpaceOnUse" x1="474.7695" y1="632.2029" x2="474.7695" y2="527.0128">
			<stop  offset="0.4764" style="stop-color:#FF0900;stop-opacity:0.9734"/>
			<stop  offset="1" style="stop-color:#F7381E;stop-opacity:0"/>
		</linearGradient>
		<path clip-path="url(#XMLID_23_)" fill="url(#SVGID_22_)" d="M401.1,619.2c0,0-20.5-1.7-12.7-0.4c11.9,2.1,13.6-11.5,21.1-79.1
			c0,0,1.3-7.8,8.8-8.2c7.5-0.4,104.8-4.4,104.8-4.4s8.3-1.7,12.9,6.3s26.4,54.6,26.8,59.8c0.3,5.2,0,29.9,0,29.9l-140.9,9
			L401.1,619.2z"/>
	</g>
	<path fill="#666666" d="M377.9,437.9H374c-5.2,0-9.5-4.3-9.5-9.5v-18c0-5.2,4.3-9.5,9.5-9.5h3.9c5.2,0,9.5,4.3,9.5,9.5v18
		C387.4,433.7,383.1,437.9,377.9,437.9z"/>
	<line fill="none" stroke="#000000" stroke-miterlimit="10" x1="352.9" y1="430.9" x2="352.9" y2="371.6"/>
	<path fill="none" stroke="#FF0900" stroke-miterlimit="10" d="M589.2,432.6c0,0,3.5,1.4,3.5,6.1s0,117,0,117l73.7-10.7
		c0,0,12.2-2.3,19.2-20.2c6-15.4,13-40,14.8-46.5c0.3-1.1,0.4-2.2,0.4-3.3v-43.6c0,0-0.5-2.9-2.8-2.8"/>
	<path fill="none" stroke="#FF0900" stroke-miterlimit="10" d="M704.8,428.4c0,0,2.4,0.2,2.4,2.6s0,108.7,0,108.7l61.6-9.1
		c0,0,9.9-4.8,13.6-14.8c3.7-9.9,14.5-35.4,14.6-40.4c0.1-5.1,0.1-48.1,0.1-48.1s-0.9-2.2-2.6-2.2"/>
	
		<ellipse transform="matrix(0.9947 -0.1028 0.1028 0.9947 -43.7113 72.4524)" fill="#FF0900" cx="680.9" cy="460.2" rx="9.4" ry="7.9"/>
	
		<ellipse transform="matrix(0.9947 -0.1028 0.1028 0.9947 -42.4369 82.6075)" fill="#FF0900" cx="780" cy="452.9" rx="8.4" ry="7.2"/>
	<g>
		<defs>
			<path id="XMLID_8_" d="M437.9,511.1c0,0-3.4,0-7.9,0c-2.2,0-6.6,0.8-10.8,1.8c-4.2,1-8.3,2.3-10.1,3.2c-3.7,1.8-6.5,2.1-6.5,2.1
				H386c0,0,0.3-1.6,0.8-3.8c0.7-3.5,1.8-8.3,2.7-10.3c1.4-3.3,3.6-3.7,3.6-3.7s33.4-0.8,37.1,0c3.7,0.8,7.4,9.7,7.4,9.7
				L437.9,511.1z"/>
		</defs>
		<use xlink:href="#XMLID_8_"  overflow="visible" opacity="0.49" fill="#E6E6E6"/>
		<clipPath id="XMLID_24_">
			<use xlink:href="#XMLID_8_"  overflow="visible" opacity="0.49"/>
		</clipPath>
		<radialGradient id="SVGID_23_" cx="384.2137" cy="535.4088" r="34.7307" gradientUnits="userSpaceOnUse">
			<stop  offset="0.3206" style="stop-color:#FFFFFF"/>
			<stop  offset="1" style="stop-color:#FFFFFF;stop-opacity:0"/>
		</radialGradient>
		<path opacity="0.49" clip-path="url(#XMLID_24_)" fill="url(#SVGID_23_)" d="M361.3,536.5c15.8-18.4,24.4-23.6,41-7.5
			c6.6-1.7,5-22.3,0-26c-5.9-4.4-31.5-1.3-31.5,0.7L361.3,536.5z"/>
	</g>
	<path fill="#808080" d="M438.1,512.1c-3.4,0.1-6.8,0.3-10.1,0.4c0,0-15.6,3.7-18.5,5.7c-3,2-7.1,2.3-7.1,2.3H386
		c-1.1-1.1,0-2.3,0-2.3h16.5c0,0,2.8-0.2,6.5-2.1c1.8-0.9,5.9-2.2,10.1-3.2c4.3-1,8.6-1.8,10.8-1.8c4.4,0,7.9,0,7.9,0
		S438.3,511.4,438.1,512.1z"/>
	<g>
		<rect x="571.6" y="462.8" fill="#FF0900" width="17.6" height="9.3"/>
		<linearGradient id="SVGID_24_" gradientUnits="userSpaceOnUse" x1="592.3698" y1="510.7083" x2="565.3923" y2="408.9258">
			<stop  offset="0.3674" style="stop-color:#FF0900;stop-opacity:0"/>
			<stop  offset="0.4032" style="stop-color:#FD2410;stop-opacity:0.1493"/>
			<stop  offset="0.4663" style="stop-color:#FB4E28;stop-opacity:0.413"/>
			<stop  offset="0.5236" style="stop-color:#F96C39;stop-opacity:0.652"/>
			<stop  offset="0.5723" style="stop-color:#F77E44;stop-opacity:0.8557"/>
			<stop  offset="0.6069" style="stop-color:#F78548"/>
		</linearGradient>
		<rect x="569.6" y="458.8" fill="url(#SVGID_24_)" width="21.6" height="13.3"/>
		<linearGradient id="SVGID_25_" gradientUnits="userSpaceOnUse" x1="592.3698" y1="510.7083" x2="565.3923" y2="408.9258">
			<stop  offset="0.3674" style="stop-color:#FF0900;stop-opacity:0"/>
			<stop  offset="0.3916" style="stop-color:#FF2E26;stop-opacity:0.1011"/>
			<stop  offset="0.4367" style="stop-color:#FF6C67;stop-opacity:0.2894"/>
			<stop  offset="0.4797" style="stop-color:#FFA19D;stop-opacity:0.4689"/>
			<stop  offset="0.5194" style="stop-color:#FFCAC8;stop-opacity:0.6345"/>
			<stop  offset="0.555" style="stop-color:#FFE7E6;stop-opacity:0.7834"/>
			<stop  offset="0.5854" style="stop-color:#FFF9F8;stop-opacity:0.9102"/>
			<stop  offset="0.6069" style="stop-color:#FFFFFF"/>
		</linearGradient>
		<rect x="569.6" y="458.8" fill="url(#SVGID_25_)" width="21.6" height="13.3"/>
		<rect x="571.6" y="460.8" fill="#F7381E" width="17.6" height="9.3"/>
	</g>
	<g>
		<polygon fill="#FF0900" points="710.7,465.2 767.4,461 767.4,451.7 710.7,455.8 		"/>
		<linearGradient id="SVGID_26_" gradientUnits="userSpaceOnUse" x1="754.7341" y1="515.626" x2="719.4067" y2="382.3409">
			<stop  offset="0.3674" style="stop-color:#FF0900;stop-opacity:0"/>
			<stop  offset="0.4032" style="stop-color:#FD2410;stop-opacity:0.1493"/>
			<stop  offset="0.4663" style="stop-color:#FB4E28;stop-opacity:0.413"/>
			<stop  offset="0.5236" style="stop-color:#F96C39;stop-opacity:0.652"/>
			<stop  offset="0.5723" style="stop-color:#F77E44;stop-opacity:0.8557"/>
			<stop  offset="0.6069" style="stop-color:#F78548"/>
		</linearGradient>
		<polygon fill="url(#SVGID_26_)" points="708.7,452 769.4,447.5 769.4,460.8 708.7,465.3 		"/>
		<linearGradient id="SVGID_27_" gradientUnits="userSpaceOnUse" x1="754.7341" y1="515.626" x2="719.4067" y2="382.3409">
			<stop  offset="0.3674" style="stop-color:#FF0900;stop-opacity:0"/>
			<stop  offset="0.3916" style="stop-color:#FF2E26;stop-opacity:0.1011"/>
			<stop  offset="0.4367" style="stop-color:#FF6C67;stop-opacity:0.2894"/>
			<stop  offset="0.4797" style="stop-color:#FFA19D;stop-opacity:0.4689"/>
			<stop  offset="0.5194" style="stop-color:#FFCAC8;stop-opacity:0.6345"/>
			<stop  offset="0.555" style="stop-color:#FFE7E6;stop-opacity:0.7834"/>
			<stop  offset="0.5854" style="stop-color:#FFF9F8;stop-opacity:0.9102"/>
			<stop  offset="0.6069" style="stop-color:#FFFFFF"/>
		</linearGradient>
		<polygon fill="url(#SVGID_27_)" points="708.7,452 769.4,447.5 769.4,460.8 708.7,465.3 		"/>
		<polygon fill="#F7381E" points="710.7,463.2 767.4,459 767.4,449.7 710.7,453.8 		"/>
	</g>
	<g>
		<polygon fill="#FF0900" points="803.6,457.8 842.1,455.3 842.1,446 803.6,448.4 		"/>
		<linearGradient id="SVGID_28_" gradientUnits="userSpaceOnUse" x1="836.5884" y1="501.7571" x2="805.6303" y2="384.9567">
			<stop  offset="0.3674" style="stop-color:#FF0900;stop-opacity:0"/>
			<stop  offset="0.4032" style="stop-color:#FD2410;stop-opacity:0.1493"/>
			<stop  offset="0.4663" style="stop-color:#FB4E28;stop-opacity:0.413"/>
			<stop  offset="0.5236" style="stop-color:#F96C39;stop-opacity:0.652"/>
			<stop  offset="0.5723" style="stop-color:#F77E44;stop-opacity:0.8557"/>
			<stop  offset="0.6069" style="stop-color:#F78548"/>
		</linearGradient>
		<polygon fill="url(#SVGID_28_)" points="801.6,444.6 844.1,441.8 844.1,455.2 801.6,457.9 		"/>
		<linearGradient id="SVGID_29_" gradientUnits="userSpaceOnUse" x1="836.5884" y1="501.7571" x2="805.6303" y2="384.9567">
			<stop  offset="0.3674" style="stop-color:#FF0900;stop-opacity:0"/>
			<stop  offset="0.3916" style="stop-color:#FF2E26;stop-opacity:0.1011"/>
			<stop  offset="0.4367" style="stop-color:#FF6C67;stop-opacity:0.2894"/>
			<stop  offset="0.4797" style="stop-color:#FFA19D;stop-opacity:0.4689"/>
			<stop  offset="0.5194" style="stop-color:#FFCAC8;stop-opacity:0.6345"/>
			<stop  offset="0.555" style="stop-color:#FFE7E6;stop-opacity:0.7834"/>
			<stop  offset="0.5854" style="stop-color:#FFF9F8;stop-opacity:0.9102"/>
			<stop  offset="0.6069" style="stop-color:#FFFFFF"/>
		</linearGradient>
		<polygon fill="url(#SVGID_29_)" points="801.6,444.6 844.1,441.8 844.1,455.2 801.6,457.9 		"/>
		<polygon fill="#F7381E" points="803.6,455.8 842.1,453.3 842.1,444 803.6,446.4 		"/>
	</g>
	<linearGradient id="SVGID_30_" gradientUnits="userSpaceOnUse" x1="863.8486" y1="466.1742" x2="864.2426" y2="470.6786">
		<stop  offset="0.3866" style="stop-color:#FF0900"/>
		<stop  offset="1" style="stop-color:#F7381E;stop-opacity:0"/>
	</linearGradient>
	<polygon fill="url(#SVGID_30_)" points="874.8,469.8 854.3,471.2 853.3,467.1 873.6,465.7 	"/>
	<linearGradient id="SVGID_31_" gradientUnits="userSpaceOnUse" x1="862.2522" y1="460.1765" x2="862.729" y2="465.6263">
		<stop  offset="0.3866" style="stop-color:#FF0900"/>
		<stop  offset="1" style="stop-color:#F7381E;stop-opacity:0"/>
	</linearGradient>
	<polygon fill="url(#SVGID_31_)" points="873.3,464.7 853,466.1 851.7,461.1 871.8,459.7 	"/>
	<linearGradient id="SVGID_32_" gradientUnits="userSpaceOnUse" x1="860.504" y1="453.8851" x2="861.0072" y2="459.6377">
		<stop  offset="0.3866" style="stop-color:#FF0900"/>
		<stop  offset="1" style="stop-color:#F7381E;stop-opacity:0"/>
	</linearGradient>
	<polygon fill="url(#SVGID_32_)" points="871.5,458.7 851.4,460.1 850,454.8 869.9,453.4 	"/>
	<linearGradient id="SVGID_33_" gradientUnits="userSpaceOnUse" x1="858.819" y1="448.1513" x2="859.2722" y2="453.3316">
		<stop  offset="0.3866" style="stop-color:#FF0900"/>
		<stop  offset="1" style="stop-color:#F7381E;stop-opacity:0"/>
	</linearGradient>
	<polygon fill="url(#SVGID_33_)" points="869.6,452.4 849.8,453.8 848.5,449.1 868.1,447.7 	"/>
	<linearGradient id="SVGID_34_" gradientUnits="userSpaceOnUse" x1="857.335" y1="443.2482" x2="857.7162" y2="447.6046">
		<stop  offset="0.3866" style="stop-color:#FF0900"/>
		<stop  offset="1" style="stop-color:#F7381E;stop-opacity:0"/>
	</linearGradient>
	<polygon fill="url(#SVGID_34_)" points="867.8,446.7 848.3,448.1 847.2,444.1 866.6,442.8 	"/>
	<g>
		<polygon fill="#FF0900" points="710.7,518.1 781.6,510.6 781.6,501.3 710.7,508.8 		"/>
		<linearGradient id="SVGID_35_" gradientUnits="userSpaceOnUse" x1="761.9835" y1="567.5771" x2="726.2629" y2="432.8084">
			<stop  offset="0.3674" style="stop-color:#FF0900;stop-opacity:0"/>
			<stop  offset="0.4032" style="stop-color:#FD2410;stop-opacity:0.1493"/>
			<stop  offset="0.4663" style="stop-color:#FB4E28;stop-opacity:0.413"/>
			<stop  offset="0.5236" style="stop-color:#F96C39;stop-opacity:0.652"/>
			<stop  offset="0.5723" style="stop-color:#F77E44;stop-opacity:0.8557"/>
			<stop  offset="0.6069" style="stop-color:#F78548"/>
		</linearGradient>
		<polygon fill="url(#SVGID_35_)" points="708.7,505 783.6,497 783.6,510.4 708.7,518.4 		"/>
		<linearGradient id="SVGID_36_" gradientUnits="userSpaceOnUse" x1="761.9835" y1="567.5771" x2="726.2629" y2="432.8084">
			<stop  offset="0.3674" style="stop-color:#FF0900;stop-opacity:0"/>
			<stop  offset="0.3916" style="stop-color:#FF2E26;stop-opacity:0.1011"/>
			<stop  offset="0.4367" style="stop-color:#FF6C67;stop-opacity:0.2894"/>
			<stop  offset="0.4797" style="stop-color:#FFA19D;stop-opacity:0.4689"/>
			<stop  offset="0.5194" style="stop-color:#FFCAC8;stop-opacity:0.6345"/>
			<stop  offset="0.555" style="stop-color:#FFE7E6;stop-opacity:0.7834"/>
			<stop  offset="0.5854" style="stop-color:#FFF9F8;stop-opacity:0.9102"/>
			<stop  offset="0.6069" style="stop-color:#FFFFFF"/>
		</linearGradient>
		<polygon fill="url(#SVGID_36_)" points="708.7,505 783.6,497 783.6,510.4 708.7,518.4 		"/>
		<polygon fill="#F7381E" points="710.7,516.1 781.6,508.6 781.6,499.3 710.7,506.8 		"/>
	</g>
	<g>
		<polygon fill="#FF0900" points="596.1,472.2 666.4,467.8 666.4,458.5 596.1,462.8 		"/>
		<linearGradient id="SVGID_37_" gradientUnits="userSpaceOnUse" x1="649.1055" y1="530.8442" x2="608.8215" y2="378.8582">
			<stop  offset="0.3674" style="stop-color:#FF0900;stop-opacity:0"/>
			<stop  offset="0.4032" style="stop-color:#FD2410;stop-opacity:0.1493"/>
			<stop  offset="0.4663" style="stop-color:#FB4E28;stop-opacity:0.413"/>
			<stop  offset="0.5236" style="stop-color:#F96C39;stop-opacity:0.652"/>
			<stop  offset="0.5723" style="stop-color:#F77E44;stop-opacity:0.8557"/>
			<stop  offset="0.6069" style="stop-color:#F78548"/>
		</linearGradient>
		<polygon fill="url(#SVGID_37_)" points="594.1,458.9 668.4,454.4 668.4,467.7 594.1,472.3 		"/>
		<linearGradient id="SVGID_38_" gradientUnits="userSpaceOnUse" x1="649.1055" y1="530.8442" x2="608.8215" y2="378.8582">
			<stop  offset="0.3674" style="stop-color:#FF0900;stop-opacity:0"/>
			<stop  offset="0.3916" style="stop-color:#FF2E26;stop-opacity:0.1011"/>
			<stop  offset="0.4367" style="stop-color:#FF6C67;stop-opacity:0.2894"/>
			<stop  offset="0.4797" style="stop-color:#FFA19D;stop-opacity:0.4689"/>
			<stop  offset="0.5194" style="stop-color:#FFCAC8;stop-opacity:0.6345"/>
			<stop  offset="0.555" style="stop-color:#FFE7E6;stop-opacity:0.7834"/>
			<stop  offset="0.5854" style="stop-color:#FFF9F8;stop-opacity:0.9102"/>
			<stop  offset="0.6069" style="stop-color:#FFFFFF"/>
		</linearGradient>
		<polygon fill="url(#SVGID_38_)" points="594.1,458.9 668.4,454.4 668.4,467.7 594.1,472.3 		"/>
		<polygon fill="#F7381E" points="596.1,470.2 666.4,465.8 666.4,456.5 596.1,460.8 		"/>
	</g>
	<g>
		<polygon fill="#FF0900" points="596.1,530.4 682.5,521.2 682.5,511.9 596.1,521.1 		"/>
		<linearGradient id="SVGID_39_" gradientUnits="userSpaceOnUse" x1="656.7098" y1="584.9338" x2="617.4704" y2="436.8887">
			<stop  offset="0.3674" style="stop-color:#FF0900;stop-opacity:0"/>
			<stop  offset="0.4032" style="stop-color:#FD2410;stop-opacity:0.1493"/>
			<stop  offset="0.4663" style="stop-color:#FB4E28;stop-opacity:0.413"/>
			<stop  offset="0.5236" style="stop-color:#F96C39;stop-opacity:0.652"/>
			<stop  offset="0.5723" style="stop-color:#F77E44;stop-opacity:0.8557"/>
			<stop  offset="0.6069" style="stop-color:#F78548"/>
		</linearGradient>
		<polygon fill="url(#SVGID_39_)" points="594.1,517.3 684.5,507.7 684.5,521 594.1,530.6 		"/>
		<linearGradient id="SVGID_40_" gradientUnits="userSpaceOnUse" x1="656.7098" y1="584.9338" x2="617.4704" y2="436.8887">
			<stop  offset="0.3674" style="stop-color:#FF0900;stop-opacity:0"/>
			<stop  offset="0.3916" style="stop-color:#FF2E26;stop-opacity:0.1011"/>
			<stop  offset="0.4367" style="stop-color:#FF6C67;stop-opacity:0.2894"/>
			<stop  offset="0.4797" style="stop-color:#FFA19D;stop-opacity:0.4689"/>
			<stop  offset="0.5194" style="stop-color:#FFCAC8;stop-opacity:0.6345"/>
			<stop  offset="0.555" style="stop-color:#FFE7E6;stop-opacity:0.7834"/>
			<stop  offset="0.5854" style="stop-color:#FFF9F8;stop-opacity:0.9102"/>
			<stop  offset="0.6069" style="stop-color:#FFFFFF"/>
		</linearGradient>
		<polygon fill="url(#SVGID_40_)" points="594.1,517.3 684.5,507.7 684.5,521 594.1,530.6 		"/>
		<polygon fill="#F7381E" points="596.1,528.4 682.5,519.2 682.5,509.9 596.1,519.1 		"/>
	</g>
	<g>
		<polygon fill="#FF0900" points="576.9,578.7 775.6,548.3 775.6,538.9 576.9,569.4 		"/>
		<linearGradient id="SVGID_41_" gradientUnits="userSpaceOnUse" x1="698.9048" y1="642.3433" x2="647.8773" y2="449.8238">
			<stop  offset="0.3674" style="stop-color:#FF0900;stop-opacity:0"/>
			<stop  offset="0.4032" style="stop-color:#FD2410;stop-opacity:0.1493"/>
			<stop  offset="0.4663" style="stop-color:#FB4E28;stop-opacity:0.413"/>
			<stop  offset="0.5236" style="stop-color:#F96C39;stop-opacity:0.652"/>
			<stop  offset="0.5723" style="stop-color:#F77E44;stop-opacity:0.8557"/>
			<stop  offset="0.6069" style="stop-color:#F78548"/>
		</linearGradient>
		<polygon fill="url(#SVGID_41_)" points="574.9,565.7 777.6,534.6 777.6,548 574.9,579 		"/>
		<linearGradient id="SVGID_42_" gradientUnits="userSpaceOnUse" x1="698.9048" y1="642.3433" x2="647.8773" y2="449.8238">
			<stop  offset="0.3674" style="stop-color:#FF0900;stop-opacity:0"/>
			<stop  offset="0.3916" style="stop-color:#FF2E26;stop-opacity:0.1011"/>
			<stop  offset="0.4367" style="stop-color:#FF6C67;stop-opacity:0.2894"/>
			<stop  offset="0.4797" style="stop-color:#FFA19D;stop-opacity:0.4689"/>
			<stop  offset="0.5194" style="stop-color:#FFCAC8;stop-opacity:0.6345"/>
			<stop  offset="0.555" style="stop-color:#FFE7E6;stop-opacity:0.7834"/>
			<stop  offset="0.5854" style="stop-color:#FFF9F8;stop-opacity:0.9102"/>
			<stop  offset="0.6069" style="stop-color:#FFFFFF"/>
		</linearGradient>
		<polygon fill="url(#SVGID_42_)" points="574.9,565.7 777.6,534.6 777.6,548 574.9,579 		"/>
		<polygon fill="#F7381E" points="576.9,576.7 775.6,546.3 775.6,536.9 576.9,567.4 		"/>
	</g>
	<g>
		<polygon fill="#FF0900" points="576.9,602.6 775.6,569.4 775.6,560 576.9,593.2 		"/>
		<linearGradient id="SVGID_43_" gradientUnits="userSpaceOnUse" x1="697.1323" y1="658.1486" x2="650.0947" y2="480.6821">
			<stop  offset="0.3674" style="stop-color:#FF0900;stop-opacity:0"/>
			<stop  offset="0.4032" style="stop-color:#FD2410;stop-opacity:0.1493"/>
			<stop  offset="0.4663" style="stop-color:#FB4E28;stop-opacity:0.413"/>
			<stop  offset="0.5236" style="stop-color:#F96C39;stop-opacity:0.652"/>
			<stop  offset="0.5723" style="stop-color:#F77E44;stop-opacity:0.8557"/>
			<stop  offset="0.6069" style="stop-color:#F78548"/>
		</linearGradient>
		<polygon fill="url(#SVGID_43_)" points="574.9,589.6 777.6,555.7 777.6,569.1 574.9,602.9 		"/>
		<linearGradient id="SVGID_44_" gradientUnits="userSpaceOnUse" x1="697.1323" y1="658.1486" x2="650.0947" y2="480.6821">
			<stop  offset="0.3674" style="stop-color:#FF0900;stop-opacity:0"/>
			<stop  offset="0.3916" style="stop-color:#FF2E26;stop-opacity:0.1011"/>
			<stop  offset="0.4367" style="stop-color:#FF6C67;stop-opacity:0.2894"/>
			<stop  offset="0.4797" style="stop-color:#FFA19D;stop-opacity:0.4689"/>
			<stop  offset="0.5194" style="stop-color:#FFCAC8;stop-opacity:0.6345"/>
			<stop  offset="0.555" style="stop-color:#FFE7E6;stop-opacity:0.7834"/>
			<stop  offset="0.5854" style="stop-color:#FFF9F8;stop-opacity:0.9102"/>
			<stop  offset="0.6069" style="stop-color:#FFFFFF"/>
		</linearGradient>
		<polygon fill="url(#SVGID_44_)" points="574.9,589.6 777.6,555.7 777.6,569.1 574.9,602.9 		"/>
		<polygon fill="#F7381E" points="576.9,600.6 775.6,567.4 775.6,558 576.9,591.2 		"/>
	</g>
	<path d="M857.9,391.5l-58.1,2.1c-2.9,0.1-5.3-2.1-5.4-5l0,0c-0.1-2.9,2.1-5.3,5-5.4l58.1-2.1c2.9-0.1,5.3,2.1,5.4,5l0,0
		C863,389,860.8,391.4,857.9,391.5z"/>
	<path d="M858.3,401.9l-58.1,2.1c-2.9,0.1-5.3-2.1-5.4-5v0c-0.1-2.9,2.1-5.3,5-5.4l58.1-2.1c2.9-0.1,5.3,2.1,5.4,5l0,0
		C863.4,399.4,861.1,401.8,858.3,401.9z"/>
	<path d="M859,412.3l-58.1,2.1c-2.9,0.1-5.3-2.1-5.4-5l0,0c-0.1-2.9,2.1-5.3,5-5.4l58.1-2.1c2.9-0.1,5.3,2.1,5.4,5l0,0
		C864.1,409.8,861.8,412.2,859,412.3z"/>
	<path d="M859.4,422.7l-58.1,2.1c-2.9,0.1-5.3-2.1-5.4-5l0,0c-0.1-2.9,2.1-5.3,5-5.4l58.1-2.1c2.9-0.1,5.3,2.1,5.4,5v0
		C864.5,420.2,862.2,422.6,859.4,422.7z"/>
	<g>
		<polygon fill="#FF0900" points="300.3,587.4 291.9,513.1 302.1,514.6 310.5,588.8 		"/>
		<polygon fill="#F7381E" points="306.2,587.5 300.1,586.6 292.2,516.5 298.3,517.3 		"/>
	</g>
	<g>
		<polygon fill="#FF0900" points="272.6,582.5 264.2,508.2 274.4,509.6 282.7,583.9 		"/>
		<polygon fill="#F7381E" points="278.5,582.6 272.4,581.7 264.5,511.6 270.5,512.4 		"/>
	</g>
	<g>
		<polygon fill="#FF0900" points="223.2,573.7 215,502.5 225.1,503.9 233.4,575.1 		"/>
		<polygon fill="#F7381E" points="229.1,573.8 223,572.9 215.2,505.8 221.3,506.7 		"/>
	</g>
	<g>
		<polygon fill="#FF0900" points="198.2,567.7 190.1,499.8 200.3,501.2 208.4,569.2 		"/>
		<polygon fill="#F7381E" points="204.1,567.8 198,567 190.4,503.1 196.5,504 		"/>
	</g>
	<g>
		<polygon fill="#FF0900" points="239.2,555.7 237.4,543.6 259.2,546.6 261,558.7 		"/>
		<polygon fill="#F7381E" points="255.4,549.4 237.7,546.9 238.9,555 256.6,557.4 		"/>
	</g>
	<path fill="#F7381E" d="M822.8,424l-37.5,1.4v-3.9l3.7-4.9c0,0,1.1-1.8,6.5-1.7c5.4,0.1,17.8,0,17.8,0s3.6-0.2,5.4,1.7
		C820.5,418.5,822.4,421,822.8,424"/>
	<path fill="#333333" d="M586.9,429.4l200.3-7.9c0,0,2.5,0.1,2.6,1.2c0.1,1.1,0,2.6,0,2.6l-204,7.5L586.9,429.4z"/>
	<g>
		<defs>
			<path id="XMLID_7_" d="M371.6,533.9h-7.5c-10.9,0-19.8,13.5-19.8,30.2c0,16.7,8.9,30.2,19.8,30.2h7.5c10.9,0,19.8-13.5,19.8-30.2
				C391.4,547.5,382.5,533.9,371.6,533.9z M380.7,565.5c-0.3,9.4-3.6,17.4-8.5,21.5c-2.5,2.3-5.5,3.6-8.6,3.6c-0.5,0-1.1,0-1.6-0.1
				c-8.7-1.3-15.5-12.6-15.5-26.4s6.8-25.1,15.5-26.4c0.5-0.1,1.1-0.1,1.6-0.1c8.7,0,15.8,10,17,22.9c0,0.4,0.1,0.8,0.1,1.2
				c0,0.4,0,0.9,0.1,1.3c0,0.4,0,0.7,0,1.1C380.7,564.6,380.7,565.1,380.7,565.5z"/>
		</defs>
		<use xlink:href="#XMLID_7_"  overflow="visible" fill="#808080"/>
		<clipPath id="XMLID_25_">
			<use xlink:href="#XMLID_7_"  overflow="visible"/>
		</clipPath>
		<linearGradient id="SVGID_45_" gradientUnits="userSpaceOnUse" x1="368.2206" y1="614.1038" x2="368.2206" y2="556.096">
			<stop  offset="1.888940e-02" style="stop-color:#FFFFFF;stop-opacity:0"/>
			<stop  offset="0.8294" style="stop-color:#000000"/>
		</linearGradient>
		<path clip-path="url(#XMLID_25_)" fill="url(#SVGID_45_)" d="M397.2,576.3c0,0-9.1-16.5-23.2-5c-14.1,11.5-22.3,1.2-22.3,1.2
			s-2.8-12.1-7.2-1.4c-4.4,10.7-11.4,33.5,4.8,35.7c16.3,2.2,40.8,1.3,42.3,0.7C393.2,607,397.2,576.3,397.2,576.3z"/>
	</g>
	<linearGradient id="SVGID_46_" gradientUnits="userSpaceOnUse" x1="363.4556" y1="573.593" x2="363.4556" y2="539.5029">
		<stop  offset="0.1155" style="stop-color:#808080"/>
		<stop  offset="1" style="stop-color:#000000"/>
	</linearGradient>
	<path fill="url(#SVGID_46_)" d="M349.1,564.4c0,11.4,4.6,21,10.9,24.3c1.5,0.8,3.1,1.2,4.8,1.2c2.6,0,5.1-1,7.3-2.9
		c-2.5,2.3-5.5,3.6-8.6,3.6c-0.5,0-1.1,0-1.6-0.1c-8.7-1.3-15.5-12.6-15.5-26.4s6.8-25.1,15.5-26.4c0.5-0.1,1.1-0.1,1.6-0.1
		c8.7,0,15.8,10,17,22.9c-1.1-12.3-7.7-21.7-15.6-21.7c-1.9,0-3.8,0.6-5.5,1.6v0C353.4,544.1,349.1,553.4,349.1,564.4z"/>
	<g>
		<defs>
			<path id="XMLID_6_" d="M380.7,564.2c0,0.5,0,0.9,0,1.4c-0.3,9.2-3.6,17.1-8.5,21.5c-2.2,1.9-4.7,2.9-7.3,2.9
				c-1.7,0-3.3-0.4-4.8-1.2c-6.4-3.3-10.9-13-10.9-24.3c0-11,4.3-20.3,10.2-24v0c1.7-1,3.6-1.6,5.5-1.6c7.9,0,14.5,9.4,15.6,21.7
				c0,0.4,0.1,0.8,0.1,1.2c0,0.4,0,0.9,0.1,1.3C380.7,563.4,380.7,563.8,380.7,564.2z"/>
		</defs>
		<use xlink:href="#XMLID_6_"  overflow="visible" opacity="0.49" fill="#E6E6E6"/>
		<clipPath id="XMLID_26_">
			<use xlink:href="#XMLID_6_"  overflow="visible" opacity="0.49"/>
		</clipPath>
		<radialGradient id="SVGID_47_" cx="364.8737" cy="576.1681" r="38.2968" gradientUnits="userSpaceOnUse">
			<stop  offset="0.3206" style="stop-color:#FFFFFF"/>
			<stop  offset="1" style="stop-color:#FFFFFF;stop-opacity:0"/>
		</radialGradient>
		<path opacity="0.49" clip-path="url(#XMLID_26_)" fill="url(#SVGID_47_)" d="M340.9,577.7c15.8-18.4,32.2-16.1,48.8,0v-50.1h-50.1
			L340.9,577.7z"/>
	</g>
	<path fill="#B3B3B3" d="M695.9,464.7l-2.4,0.3c-1.6,0.2-2.9-0.9-2.9-2.5v-5.9c0-1.6,1.3-3.1,2.9-3.3l2.4-0.3
		c1.6-0.2,2.9,0.9,2.9,2.5v5.9C698.7,463,697.4,464.5,695.9,464.7z"/>
	<path fill="#B3B3B3" d="M694.9,461.4l-23.1,1.6c-1.1,0.1-2-0.8-2-1.9v0c0-1.1,0.9-2.1,2-2.1l23.1-1.6c1.1-0.1,2,0.8,2,1.9l0,0
		C696.9,460.4,696,461.3,694.9,461.4z"/>
	<path fill="#B3B3B3" d="M792.4,454l-20.7,1.4c-1,0.1-1.8-0.7-1.8-1.7l0,0c0-1,0.8-1.8,1.8-1.9l20.7-1.4c1-0.1,1.8,0.7,1.8,1.7l0,0
		C794.2,453.1,793.4,453.9,792.4,454z"/>
	<path fill="#B3B3B3" d="M793.4,456.9l-2,0.3c-1.3,0.2-2.4-0.8-2.4-2.1v-5c0-1.4,1.1-2.6,2.4-2.8l2-0.3c1.3-0.2,2.4,0.8,2.4,2.1v5
		C795.8,455.5,794.7,456.8,793.4,456.9z"/>
	<g>
		<defs>
			<path id="XMLID_5_" d="M613.8,332.6l-207.3,5.1c0,0-2,0.6-3.1,2.3c-1,1.6-40.8,84.7-40.8,84.7l1.9,2.7l201.7,5.8l13.2,0.4
				l6.5-0.7l29.3-95.8L613.8,332.6z M577.6,419.4l-203.8-5.2l33.2-69.4l196.9-4L577.6,419.4z"/>
		</defs>
		<use xlink:href="#XMLID_5_"  overflow="visible" fill="#F7381E"/>
		<clipPath id="XMLID_27_">
			<use xlink:href="#XMLID_5_"  overflow="visible"/>
		</clipPath>
		<polygon clip-path="url(#XMLID_27_)" fill="#FF0900" points="614.6,329.9 581.6,430.9 362.7,424.6 364.6,427.3 577.7,440.3 
			598.2,440.3 628.5,330.5 		"/>
		<polygon opacity="0.15" clip-path="url(#XMLID_27_)" fill="#FFFFFF" points="558,438.5 475.3,438.5 375,327.6 457.7,327.6 		"/>
		<polygon opacity="0.15" clip-path="url(#XMLID_27_)" fill="#FFFFFF" points="503.2,446.8 420.5,446.8 320.2,336 402.9,336 		"/>
	</g>
	<polygon opacity="0.25" fill="#FFFFFF" points="603.8,340.8 577.6,419.4 373.7,414.3 407,344.9 	"/>
	<g>
		<defs>
			<path id="XMLID_4_" d="M189.1,492.8l115,12.1c0,0,9.4,0.5,18.1-1.4c8.6-1.9,244.1-55,244.1-55s3.8-1.1,4.3-3.8
				c0.5-2.7,0-8.6,0-8.6s-0.7-2.5-4.3-3c-3.6-0.5-201.7-5.8-201.7-5.8l-175.5,54.4c0,0-3.9,2.2-3.9,8.8
				C185.1,492.4,189.1,492.8,189.1,492.8z"/>
		</defs>
		<use xlink:href="#XMLID_4_"  overflow="visible" fill="#F7381E"/>
		<clipPath id="XMLID_30_">
			<use xlink:href="#XMLID_4_"  overflow="visible"/>
		</clipPath>
		<linearGradient id="SVGID_48_" gradientUnits="userSpaceOnUse" x1="309.8892" y1="317.0339" x2="472.3121" y2="666.7097">
			<stop  offset="9.908881e-02" style="stop-color:#F78548"/>
			<stop  offset="0.4407" style="stop-color:#F7381E"/>
		</linearGradient>
		<path clip-path="url(#XMLID_30_)" fill="url(#SVGID_48_)" d="M189.1,492.8l115,12.1c0,0,9.4,0.5,18.1-1.4
			c8.6-1.9,244.1-55,244.1-55s3.8-1.1,4.3-3.8c0.5-2.7,0-8.6,0-8.6s-0.7-2.5-4.3-3c-3.6-0.5-201.7-5.8-201.7-5.8l-175.5,54.4
			c0,0-3.9,2.2-3.9,8.8C185.1,492.4,189.1,492.8,189.1,492.8z"/>
		<polygon opacity="0.15" clip-path="url(#XMLID_30_)" fill="#FFFFFF" points="454.8,522.9 372,522.9 271.8,417.7 354.5,417.7 		"/>
		<polygon opacity="0.15" clip-path="url(#XMLID_30_)" fill="#FFFFFF" points="399.9,530.8 317.2,530.8 217,425.6 299.7,425.6 		"/>
		<polygon opacity="0.15" clip-path="url(#XMLID_30_)" fill="#FFFFFF" points="318.7,538.6 314.7,538.6 218.9,435 222.9,435 		"/>
	</g>
	
		<line fill="none" stroke="#FF0900" stroke-width="2" stroke-linecap="round" stroke-linejoin="round" stroke-miterlimit="10" x1="303" y1="493.5" x2="540.2" y2="437.9"/>
	
		<line fill="none" stroke="#FF0900" stroke-width="2" stroke-linecap="round" stroke-linejoin="round" stroke-miterlimit="10" x1="274.4" y1="490.3" x2="486.9" y2="437.9"/>
	
		<line fill="none" stroke="#FF0900" stroke-width="2" stroke-linecap="round" stroke-linejoin="round" stroke-miterlimit="10" x1="247.7" y1="487.8" x2="438.2" y2="437.9"/>
	
		<line fill="none" stroke="#FF0900" stroke-width="2" stroke-linecap="round" stroke-linejoin="round" stroke-miterlimit="10" x1="223.6" y1="484.6" x2="401.1" y2="434.7"/>
	
		<line fill="none" stroke="#FF0900" stroke-width="2" stroke-linecap="round" stroke-linejoin="round" stroke-miterlimit="10" x1="199.5" y1="482.9" x2="364.4" y2="433.2"/>
	<g>
		<polygon fill="#666666" points="358.2,608.4 358.2,634.4 137.2,587.4 137.2,565.4 		"/>
		<polygon fill="#333333" points="368.2,605.4 368.2,631.4 358.2,634.4 358.2,608.4 		"/>
		<polygon fill="#808080" points="368.2,605.4 358.2,608.4 137.2,565.4 147.2,562.4 		"/>
	</g>
	<g>
		<defs>
			<path id="XMLID_3_" d="M636.9,442.3H633c-5.2,0-9.5-4.3-9.5-9.5v-18c0-5.2,4.3-9.5,9.5-9.5h3.9c5.2,0,9.5,4.3,9.5,9.5v18
				C646.4,438,642.1,442.3,636.9,442.3z"/>
		</defs>
		<use xlink:href="#XMLID_3_"  overflow="visible" fill="#666666"/>
		<clipPath id="XMLID_31_">
			<use xlink:href="#XMLID_3_"  overflow="visible"/>
		</clipPath>
		<path opacity="0.45" clip-path="url(#XMLID_31_)" fill="#333333" d="M634.3,422.3c0,0,11.5,18.5,6.1,21.2
			c-5.3,2.7-18.8,3-19.8-0.9c-0.9-3.9-5.2-35.4-1.6-35.9C622.8,406.2,630.3,414.7,634.3,422.3"/>
	</g>
	<g>
		<path fill="#333333" d="M610.9,448.7c-1.1,0-2-0.9-2-2v-8.8c0-0.7,0.3-1.3,0.9-1.7l22.4-15.2c0.9-0.6,2.2-0.4,2.8,0.5
			c0.6,0.9,0.4,2.2-0.5,2.8l-21.5,14.6v7.8C612.9,447.8,612,448.7,610.9,448.7z"/>
	</g>
	<path d="M779.8,545.6c0,0-3.1,6.4-4,12.4l-210.1,35.1c-0.8-4.1-2.2-7.8-2.2-7.8s-1-2.4-2.7-6.2L779.8,545.6z"/>
	
		<line fill="none" stroke="#FFFFFF" stroke-width="2" stroke-linecap="round" stroke-linejoin="round" stroke-miterlimit="10" x1="297.8" y1="517.3" x2="292.5" y2="516.5"/>
	
		<line fill="none" stroke="#FFFFFF" stroke-width="2" stroke-linecap="round" stroke-linejoin="round" stroke-miterlimit="10" x1="301.9" y1="492.3" x2="296.5" y2="491.9"/>
	
		<line opacity="0.74" fill="none" stroke="#FFFFFF" stroke-linecap="round" stroke-linejoin="round" stroke-miterlimit="10" x1="398.6" y1="519.3" x2="388" y2="519.3"/>
	
		<line fill="none" stroke="#FFFFFF" stroke-width="2" stroke-linecap="round" stroke-linejoin="round" stroke-miterlimit="10" x1="273" y1="490" x2="267.6" y2="489.5"/>
	
		<line fill="none" stroke="#FFFFFF" stroke-width="2" stroke-linecap="round" stroke-linejoin="round" stroke-miterlimit="10" x1="246.3" y1="487.1" x2="240.9" y2="486.7"/>
	
		<line fill="none" stroke="#FFFFFF" stroke-width="2" stroke-linecap="round" stroke-linejoin="round" stroke-miterlimit="10" x1="222.6" y1="483.9" x2="217.2" y2="483.5"/>
	
		<line fill="none" stroke="#FFFFFF" stroke-width="2" stroke-linecap="round" stroke-linejoin="round" stroke-miterlimit="10" x1="198.1" y1="481.9" x2="192.7" y2="481.4"/>
	
		<line fill="none" stroke="#FFFFFF" stroke-width="2" stroke-linecap="round" stroke-linejoin="round" stroke-miterlimit="10" x1="269.8" y1="512.9" x2="264.5" y2="512.2"/>
	
		<line fill="none" stroke="#FFFFFF" stroke-width="2" stroke-linecap="round" stroke-linejoin="round" stroke-miterlimit="10" x1="254.8" y1="550.2" x2="237.9" y2="547.9"/>
	
		<line fill="none" stroke="#FFFFFF" stroke-width="2" stroke-linecap="round" stroke-linejoin="round" stroke-miterlimit="10" x1="306.4" y1="508.5" x2="188.8" y2="495.7"/>
	<radialGradient id="SVGID_49_" cx="380.8712" cy="524.3428" r="18.6888" gradientUnits="userSpaceOnUse">
		<stop  offset="0" style="stop-color:#FFFFFF"/>
		<stop  offset="0.2328" style="stop-color:#FFFDFC;stop-opacity:0.7672"/>
		<stop  offset="0.3745" style="stop-color:#FFF5F4;stop-opacity:0.6255"/>
		<stop  offset="0.4918" style="stop-color:#FEE9E6;stop-opacity:0.5082"/>
		<stop  offset="0.5958" style="stop-color:#FDD6D1;stop-opacity:0.4042"/>
		<stop  offset="0.6911" style="stop-color:#FCBFB7;stop-opacity:0.3089"/>
		<stop  offset="0.7799" style="stop-color:#FBA296;stop-opacity:0.2201"/>
		<stop  offset="0.8637" style="stop-color:#FA8070;stop-opacity:0.1363"/>
		<stop  offset="0.9415" style="stop-color:#F85A44;stop-opacity:5.845207e-02"/>
		<stop  offset="1" style="stop-color:#F7381E;stop-opacity:0"/>
	</radialGradient>
	
		<path fill="none" stroke="url(#SVGID_49_)" stroke-width="2" stroke-linecap="round" stroke-linejoin="round" stroke-miterlimit="10" d="
		M406,527c-19.5-4.4-35.7-5.6-50.3-5.4"/>
	
		<line fill="none" stroke="#FFFFFF" stroke-width="2" stroke-linecap="round" stroke-linejoin="round" stroke-miterlimit="10" x1="220.6" y1="507.1" x2="215.2" y2="506.3"/>
	
		<line fill="none" stroke="#FFFFFF" stroke-width="2" stroke-linecap="round" stroke-linejoin="round" stroke-miterlimit="10" x1="195.8" y1="504.9" x2="190.4" y2="504.2"/>
	<path d="M381.9,563.6"/>
	<g opacity="0.74">
		<defs>
			<path id="XMLID_2_" opacity="0.74" d="M365.6,535.3c9.1,0,16.7,10.9,18,25.1"/>
		</defs>
		<defs>
			<path id="XMLID_1_" opacity="0.74" d="M359.2,537.2"/>
		</defs>
		<clipPath id="XMLID_32_">
			<use xlink:href="#XMLID_2_"  overflow="visible"/>
		</clipPath>
		<clipPath id="XMLID_35_" clip-path="url(#XMLID_32_)">
			<use xlink:href="#XMLID_1_"  overflow="visible"/>
		</clipPath>
		
			<use xlink:href="#XMLID_2_"  overflow="visible" fill="none" stroke="#FFFFFF" stroke-width="1.5" stroke-linecap="round" stroke-linejoin="round" stroke-miterlimit="10"/>
		
			<use xlink:href="#XMLID_1_"  overflow="visible" fill="none" stroke="#FFFFFF" stroke-width="1.5" stroke-linecap="round" stroke-linejoin="round" stroke-miterlimit="10"/>
	</g>
	<circle fill="#FFFFFF" cx="832.1" cy="553.4" r="1.5"/>
</g>
</svg>
